<?xml version="1.0" encoding="utf-8"?>
<!-- Generator: Adobe Illustrator 26.2.1, SVG Export Plug-In . SVG Version: 6.00 Build 0)  -->
<svg version="1.1" id="Layer_1" xmlns="http://www.w3.org/2000/svg" xmlns:xlink="http://www.w3.org/1999/xlink" x="0px" y="0px"
	 viewBox="0 0 49.86773 47.39033" style="enable-background:new 0 0 49.86773 47.39033;" xml:space="preserve">
<style type="text/css">
	.st0{fill:#FFFF00;}
	.st1{fill:#040203;}
</style>
<g id="b">
	<g id="c" transform="translate(-249.93148,-17.006411)">
		<g id="d">
			<path id="e" class="st0" d="M267.29953,19.68194c-0.2085,0.0167-0.4046,0.17486-0.59091,0.26532
				c-0.54272,0.26352-1.06375,0.58395-1.58655,0.88441c-1.97726,1.13647-3.90982,2.40922-5.72079,3.79853
				c-0.50046,0.38392-1.00345,0.76578-1.49542,1.16114c-0.19482,0.15656-0.44919,0.44572-0.68481,0.51627
				c-0.13776,0.23697-0.44284,0.40669-0.65335,0.57895c-0.42374,0.34671-0.83481,0.7161-1.24133,1.08241
				c-1.29225,1.16434-2.52327,2.37777-3.71461,3.64645c-0.40701,0.43344-0.79904,0.88753-1.16791,1.35425
				c-0.20511,0.25952-0.39746,0.42955-0.43431,0.77237c-0.27257,2.53523,0.2169,5.12565,0.72537,7.58996
				c1.03546,5.01821,2.88434,9.95498,5.07193,14.5889c0.76889,1.62873,1.54443,3.26773,2.45898,4.82149
				c0.21902,0.37204,0.43066,0.74811,0.65024,1.11983c0.09332,0.15802,0.17889,0.38012,0.31912,0.50268
				c0.13898,0.12163,0.36594,0.13625,0.53705,0.18415c0.40323,0.11292,0.80972,0.21215,1.21271,0.32599
				c1.83127,0.5173,3.77029,0.88746,5.66135,1.07659c5.74902,0.57485,11.59225,0.65199,17.32626-0.12069
				c1.59515-0.21494,3.20926-0.51854,4.75931-0.9559c0.53314-0.15055,1.26727-0.17668,1.73386-0.49646
				c0.15054-0.10328,0.24823-0.35088,0.33627-0.50766c0.20621-0.36706,0.41931-0.73318,0.63113-1.09744
				c0.91455-1.57336,1.69623-3.2136,2.48169-4.8526c2.21042-4.61277,4.03293-9.58388,5.06693-14.5889
				c0.49271-2.38415,0.99445-4.91453,0.7565-7.37222c-0.0874-0.90202-1.03366-1.70855-1.63309-2.3444
				c-1.15466-1.22416-2.32272-2.43174-3.58875-3.54237c-0.44266-0.38852-0.8797-0.78581-1.33353-1.16108
				c-0.21713-0.17961-0.54532-0.36046-0.68716-0.60433c-0.25754-0.07217-0.55493-0.40939-0.7655-0.5843
				c-0.44949-0.373-0.92606-0.71511-1.38611-1.07479c-1.79327-1.402-3.74521-2.67002-5.71954-3.7994
				c-0.46069-0.26353-0.93134-0.51098-1.38953-0.77755c-0.22989-0.13373-0.55276-0.36839-0.81778-0.38962
				c-0.14713-0.18958-0.4725-0.27615-0.68436-0.37978c-0.57205-0.28008-1.16257-0.51537-1.74194-0.77721
				c-1.1572-0.52295-2.37454-0.93706-3.60883-1.22287c-0.55777-0.12916-1.10046-0.30924-1.67926-0.29484
				c-0.45709,0.01137-0.92596,0.19366-1.36856,0.29484c-1.06711,0.24394-2.13013,0.59049-3.14188,1.01986
				c-0.72879,0.30929-1.47327,0.60262-2.17746,0.96464c-0.21552,0.1108-0.5675,0.19689-0.71545,0.39536"/>
			<path id="f" class="st1" d="M267.29953,19.68194c-0.2085,0.0167-0.4046,0.17486-0.59091,0.26532
				c-0.54272,0.26352-1.06375,0.58395-1.58655,0.88441c-1.97726,1.13647-3.90982,2.40922-5.72079,3.79853
				c-0.50046,0.38392-1.00345,0.76578-1.49542,1.16114c-0.19482,0.15656-0.44919,0.44572-0.68481,0.51627
				c-0.13776,0.23697-0.44284,0.40669-0.65335,0.57895c-0.42374,0.34671-0.83481,0.7161-1.24133,1.08241
				c-1.29225,1.16434-2.52327,2.37777-3.71461,3.64645c-0.40701,0.43344-0.79904,0.88753-1.16791,1.35425
				c-0.20511,0.25952-0.39746,0.42955-0.43431,0.77237c-0.27257,2.53523,0.2169,5.12565,0.72537,7.58996
				c1.03546,5.01821,2.88434,9.95498,5.07193,14.5889c0.76889,1.62873,1.54443,3.26773,2.45898,4.82149
				c0.21902,0.37204,0.43066,0.74811,0.65024,1.11983c0.09332,0.15802,0.17889,0.38012,0.31912,0.50268
				c0.13898,0.12163,0.36594,0.13625,0.53705,0.18415c0.40323,0.11292,0.80972,0.21215,1.21271,0.32599
				c1.83127,0.5173,3.77029,0.88746,5.66135,1.07659c5.74902,0.57485,11.59225,0.65199,17.32626-0.12069
				c1.59515-0.21494,3.20926-0.51854,4.75931-0.9559c0.53314-0.15055,1.26727-0.17668,1.73386-0.49646
				c0.15054-0.10328,0.24823-0.35088,0.33627-0.50766c0.20621-0.36706,0.41931-0.73318,0.63113-1.09744
				c0.91455-1.57336,1.69623-3.2136,2.48169-4.8526c2.21042-4.61277,4.03293-9.58388,5.06693-14.5889
				c0.49271-2.38415,0.99445-4.91453,0.7565-7.37222c-0.0874-0.90202-1.03366-1.70855-1.63309-2.3444
				c-1.15466-1.22416-2.32272-2.43174-3.58875-3.54237c-0.44266-0.38852-0.8797-0.78581-1.33353-1.16108
				c-0.21713-0.17961-0.54532-0.36046-0.68716-0.60433c-0.25754-0.07217-0.55493-0.40939-0.7655-0.5843
				c-0.44949-0.373-0.92606-0.71511-1.38611-1.07479c-1.79327-1.402-3.74521-2.67002-5.71954-3.7994
				c-0.46069-0.26353-0.93134-0.51098-1.38953-0.77755c-0.22989-0.13373-0.55276-0.36839-0.81778-0.38962
				c-0.14713-0.18958-0.4725-0.27615-0.68436-0.37978c-0.57205-0.28008-1.16257-0.51537-1.74194-0.77721
				c-1.1572-0.52295-2.37454-0.93706-3.60883-1.22287c-0.55777-0.12916-1.10046-0.30924-1.67926-0.29484
				c-0.45709,0.01137-0.92596,0.19366-1.36856,0.29484c-1.06711,0.24394-2.13013,0.59049-3.14188,1.01986
				c-0.72879,0.30929-1.47327,0.60262-2.17746,0.96464c-0.21552,0.1108-0.5675,0.19689-0.71545,0.39536 M272.24542,21.64162
				l-0.65323,0.24885v0.03111h0.12442v0.03111c-0.99976,0.23128-1.9549,0.73085-2.89288,1.13775
				c-1.52066,0.65964-3.04846,1.30264-4.57263,1.95488c-0.78952,0.33788-1.57889,0.74736-2.3952,1.01342
				c0.78647,0.75271,1.62643,1.61787,2.51962,2.23966v0.06221l-5.56805,3.24903l-1.67975,0.98178l-0.99539,0.55957l0.80878-0.8088
				l1.89746-1.83646l2.08414-2.02347l0.871-0.8371v-0.03111l-0.96185-1.11983l-0.40683-0.55991
				c0.85501-0.4866,1.64975-1.12671,2.4574-1.68842c1.41699-0.98558,2.8425-1.9597,4.26157-2.94279
				c0.62125-0.43042,1.23801-0.86949,1.86639-1.28937c0.20038-0.13389,0.50394-0.45086,0.74655-0.48231
				c0.18695-0.02424,0.48608,0.33916,0.62225,0.45394c0.42719,0.36013,0.85086,0.7242,1.27524,1.08793
				c0.19199,0.16455,0.47934,0.33918,0.591,0.56835 M289.13623,25.96543v0.03111c-0.32974,0.37763-0.64236,0.77013-0.96835,1.15094
				c-0.09799,0.11447-0.33719,0.30938-0.35089,0.4666c-0.01242,0.14306,0.23114,0.31383,0.32352,0.40158
				c0.37329,0.35502,0.73816,0.72002,1.12015,1.06571c0.97485,0.88212,1.8894,1.84455,2.83069,2.76272
				c0.40842,0.39841,1.02182,0.81014,1.30646,1.30694l-1.21313-0.69669l-2.02194-1.18204l-4.97702-2.91165
				c0.1431-0.29365,0.53381-0.54069,0.77768-0.75545c0.57452-0.50567,1.16959-1.00555,1.71085-1.54642
				c-0.84671-0.28655-1.66574-0.71109-2.48853-1.0616l-4.75925-2.03121c-0.85034-0.36286-1.68768-0.76917-2.58185-1.01323v-0.03111
				h0.12445v-0.03111l-0.65323-0.24885c0.11389-0.24409,0.39014-0.40616,0.591-0.57793
				c0.41614-0.35589,0.82416-0.72207,1.24426-1.07321c0.14261-0.11922,0.42697-0.46386,0.62213-0.45738
				c0.22479,0.00746,0.53506,0.32636,0.71545,0.44917c0.60406,0.41126,1.20319,0.83042,1.80417,1.24616
				c1.47256,1.01852,2.94296,2.04027,4.41708,3.05642c0.80505,0.55503,1.66016,1.07308,2.4263,1.68055 M283.75482,28.48507v0.03111
				c-1.30551,0.76205-2.85684,1.23608-4.32376,1.56618c-0.36179,0.08144-0.72229,0.15874-1.08875,0.21544
				c-0.11581,0.01792-0.28201,0.08582-0.39569,0.03478c-0.20184-0.09061-0.26157-0.74575-0.32086-0.94542
				c-0.19598-0.66008-0.3674-1.32809-0.55444-1.99081c-0.06577-0.23305-0.0957-0.6412-0.24866-0.82998
				c-0.09613-0.11864-0.33606-0.07211-0.47113-0.07211h-2.79959c-0.15988,0-0.47174-0.05944-0.6091,0.03198
				c-0.19318,0.12856-0.25354,0.74413-0.31494,0.96343c-0.26685,0.9531-0.59784,1.92185-0.78683,2.8929
				c-0.51669-0.00426-1.05368-0.15108-1.5553-0.26444c-1.14792-0.25936-2.27292-0.5993-3.3595-1.05522
				c-0.39856-0.16726-0.77716-0.39941-1.18204-0.54673c0.17059-0.31181,0.72369-0.52277,1.02652-0.69317
				c0.98975-0.55693,2.02347-1.02222,3.11063-1.35621c4.68054-1.43802,9.80301-0.72767,13.87344,2.01828 M274.70288,26.83645v0.9643
				c-0.37781-0.14629-0.94241-0.63877-1.18207-0.9643H274.70288 M276.19598,26.83645
				c-0.26929,0.36581-0.77609,0.70798-1.15094,0.9643v-0.9643H276.19598 M273.14755,26.99198
				c0.35129,0.26475,0.69315,0.55282,1.02652,0.83987c0.09244,0.0796,0.32672,0.21156,0.34464,0.34217
				c0.02289,0.16729-0.41754,0.41658-0.53128,0.51123c-0.5578,0.46423-1.10513,0.98564-1.71085,1.38626l0.57367-2.11524
				l0.2973-0.9643 M276.60037,26.99196l0.37042,1.30647l0.50055,1.83528l-1.64865-1.35036l-0.68433-0.64045l1.46198-1.15094
				 M274.70288,28.54728v2.05302l-2.33301-0.12443c0.33841-0.44246,0.90604-0.78814,1.33759-1.13884
				C274.02441,29.07947,274.33966,28.73468,274.70288,28.54728 M271.77887,30.56919l-0.88416,3.20396l-0.45343,1.67975
				c-1.02948-0.00283-2.17529-0.25193-3.17282-0.4977c0.11188-0.29508,0.36002-0.56216,0.55338-0.80877
				c0.51141-0.65218,1.22598-1.55899,2.05954-1.80417v-0.03111c-1.14835,0-2.13135,0.43997-3.01733,1.16058
				c-0.2673,0.21743-0.53976,0.45381-0.77487,0.7058c-0.10376,0.11124-0.23132,0.3437-0.38617,0.3856
				c-0.11188,0.03027-0.25537-0.04106-0.36316-0.06731c-0.29312-0.07148-0.58301-0.15559-0.87097-0.24546
				c-1.11218-0.34712-2.16132-0.77669-3.23508-1.22376c0.15128-0.39322,0.50134-0.75775,0.75745-1.08872
				c0.68991-0.89167,1.48456-1.71524,2.35321-2.43408c0.27466-0.22729,0.55109-0.4539,0.83984-0.66334
				c0.10193-0.07391,0.24203-0.21603,0.37329-0.22471c0.17603-0.01163,0.43622,0.18866,0.59103,0.26602
				c0.43262,0.21616,0.88467,0.3972,1.33755,0.56604c0.94656,0.35287,1.90652,0.64026,2.89291,0.85935
				C270.83621,30.40866,271.33408,30.42854,271.77887,30.56919 M275.07614,28.57839l1.43091,1.19405l0.77765,0.67233
				c-0.70203,0.17258-1.51971,0.15553-2.23965,0.15553v-1.36868L275.07614,28.57839 M288.26526,33.08882
				c-1.16461,0.48489-2.3302,0.92635-3.54614,1.27101c-0.28928,0.082-0.58044,0.15348-0.87097,0.23034
				c-0.10764,0.02846-0.26505,0.09568-0.37329,0.0502c-0.27902-0.11715-0.56271-0.50053-0.77765-0.71122
				c-0.40253-0.3943-0.85419-0.74313-1.30646-1.07765c-0.20969-0.15507-0.46173-0.37281-0.71533-0.44865
				c-0.24652-0.07375-0.50076,0.5425-0.59991,0.71706c-0.03955,0.06971-0.11407,0.16122-0.10785,0.24608
				c0.0116,0.15665,0.52951,0.63292,0.67651,0.68359c0.1424,0.04906,0.30453-0.13245,0.46658-0.11391
				c0.44421,0.05086,1.01376,0.62754,1.18204,1.01951c-1.00037,0.12922-2.00204,0.4638-3.0173,0.4666l-0.44373-1.64864
				l-0.89386-3.23507c0.35901-0.10909,0.75305-0.12287,1.11984-0.20689c1.0195-0.23358,2.04462-0.49895,3.0173-0.88806
				c0.44016-0.17609,0.87814-0.35219,1.30649-0.55696c0.14807-0.07077,0.39319-0.26257,0.55991-0.24269
				c0.13593,0.01621,0.26691,0.15569,0.37329,0.23277c0.27747,0.20132,0.54218,0.41987,0.80878,0.63532
				c0.86786,0.70126,1.66013,1.54758,2.34604,2.4263c0.27994,0.35831,0.61435,0.73029,0.79568,1.15094 M277.40909,30.60029v0.03111
				c-0.76584,0.52097-1.53522,1.17411-2.36407,1.58643v-1.462C275.82175,30.75583,276.64374,30.74239,277.40909,30.60029
				 M274.70282,32.24894l-0.83987-0.534l-1.5553-1.05242l0.68433,0.02221l1.11984,0.07111l0.55902,0.04986l0.03198,0.38563V32.24894
				 M277.68906,30.88027l1.15094,4.16826c-0.55475-0.21028-1.10242-0.70213-1.58643-1.04443
				c-0.68411-0.48377-1.41968-0.90224-2.08414-1.41298c0.20474-0.25146,0.54367-0.40911,0.80878-0.59183
				C276.49023,31.64636,277.09949,31.07574,277.68906,30.88027 M274.5162,32.59112l-2.23965,1.5155l-1.36868,0.9108l1.11981-4.10604
				c0.28882,0.0922,0.55692,0.34015,0.80878,0.50806C273.35486,31.76503,274.1196,32.11128,274.5162,32.59112 M274.70285,32.90218
				v2.83068l-3.85721-0.21775c0.19363-0.30192,0.70145-0.51266,0.99542-0.71622c0.62799-0.43484,1.2659-0.85549,1.89749-1.28528
				C274.03513,33.31179,274.35974,33.01171,274.70285,32.90218 M275.07614,32.93329
				c0.73697,0.49677,1.46454,1.01133,2.20856,1.49743c0.49185,0.32136,1.11218,0.63432,1.5242,1.05329l-1.24426,0.12971
				l-2.51962,0.11914v-1.9286l0.03113-0.87098 M265.58868,34.73745c-0.15033,0.22002-0.47787,0.83508-0.74667,0.89098
				c-0.18491,0.03842-0.3884-0.09543-0.55981-0.14443c-0.10556,0.36646-0.45038,0.6887-0.51706,1.05762
				c-0.03665,0.20256,0.19974,0.38998,0.16467,0.62213c-0.08533,0.56471-0.29727,1.11202-0.38495,1.67975
				c-0.15073,0.97637-0.14642,1.9104-0.13364,2.8929h-4.91479c0.05362-0.22527,0.01819-0.4553,0.03391-0.68434
				c0.03482-0.5089,0.08762-1.01939,0.16592-1.52422c0.23746-1.53109,0.70151-3.00979,1.34586-4.41711
				c0.22516-0.49167,0.48236-0.96209,0.75153-1.43089c0.07462-0.12996,0.19739-0.43683,0.35007-0.4847
				c0.10669-0.03344,0.24713,0.0749,0.33893,0.11824c0.27402,0.12934,0.55878,0.24686,0.83987,0.36021
				c1.06665,0.43011,2.1972,0.66057,3.26617,1.06387 M290.9404,41.7364h-5.16364c0-1.23717-0.13129-2.43007-0.40067-3.63945
				c-0.08243-0.36926-0.37982-1.00001,0.0896-1.18204l-0.55994-1.08872l-0.43549,0.15553l-0.83987-1.18204
				c1.14999-0.223,2.30002-0.6099,3.39059-1.03239c0.32352-0.1253,0.64328-0.25532,0.96429-0.38616
				c0.10175-0.0414,0.25385-0.1438,0.36771-0.11223c0.15521,0.04311,0.27216,0.3436,0.34497,0.47316
				c0.25256,0.45073,0.49551,0.90118,0.71637,1.36868c0.96649,2.04606,1.52609,4.36044,1.52609,6.62567 M280.14648,38.47023
				l-0.50241-1.77306l-0.27524-1.11983c0.70026-0.00579,1.4592-0.17889,2.14633-0.31106
				c0.22675-0.04361,0.68277-0.23016,0.90085-0.14567c0.13095,0.0507,0.22708,0.22512,0.30826,0.33231
				c0.23795,0.31417,0.6582,0.94744,0.32755,1.35686c-0.15741,0.1951-0.51544,0.30578-0.72791,0.43748
				c-0.67032,0.41536-1.43759,0.95366-2.17743,1.22298 M270.37906,35.63956l-0.80878,2.95511
				c-0.26736-0.04766-0.51385-0.23504-0.74655-0.36861c-0.45401-0.26064-0.9064-0.52977-1.36868-0.77548
				c-0.25021-0.13301-0.65225-0.29193-0.80859-0.5369c-0.27991-0.43866-0.00259-0.95185,0.21326-1.33633
				c0.07239-0.12894,0.1622-0.358,0.29449-0.43418c0.18274-0.10517,0.66068,0.08464,0.86075,0.12312
				c0.76584,0.14729,1.62195,0.14776,2.36411,0.37328 M278.46671,35.70178v0.03111l-2.4574,1.49345l-0.96429,0.55957v-1.89749
				l3.42172-0.18664 M274.70285,35.88842v1.9286l-0.93317-0.54113l-2.51962-1.51189
				c0.28564-0.11985,0.72345,0.01658,1.02649,0.02989C273.08792,35.82944,273.88828,35.88842,274.70285,35.88842 M279.05777,35.7951
				l0.77765,2.86179l-1.33759,0.76531l-0.62213,0.30792l-0.77765-0.42635l-1.89749-1.14459v-0.06221
				c0.91644-0.48778,1.78757-1.08502,2.67514-1.62385C278.22659,36.2601,278.65347,35.87305,279.05777,35.7951 M274.48514,38.09696
				v0.06221c-0.67334,0.41359-1.34427,0.83141-2.02194,1.23803c-0.19113,0.11469-0.54901,0.43869-0.77765,0.42171
				c-0.18597-0.01378-0.43219-0.20966-0.59103-0.30341c-0.40891-0.24132-0.82526-0.4801-1.24426-0.7031l0.80878-2.98622
				c0.4313,0.07783,0.90503,0.49462,1.27536,0.72528C272.77802,37.07689,273.63821,37.57674,274.48514,38.09696 M285.03018,36.10614
				l0.0311,0.03111L285.03018,36.10614 M285.06128,36.16835l0.03113,0.03111L285.06128,36.16835 M285.24792,41.7364h-3.85718
				c-0.09085,0-0.24234,0.02756-0.31958-0.03198c-0.16266-0.12567-0.21371-0.61426-0.26672-0.8079
				c-0.07135-0.2607-0.34015-0.82385-0.26062-1.08297c0.05157-0.16788,0.42175-0.30718,0.56696-0.38622
				c0.51358-0.27955,1.00629-0.60001,1.52423-0.87173c0.33533-0.17594,0.8772-0.66895,1.27536-0.56573
				c0.36923,0.09571,0.52631,0.56402,0.63766,0.88473c0.31387,0.9038,0.62369,1.90247,0.69989,2.86179 M268.69934,41.73639h-4.8215
				c0.00052-0.90884,0.3035-1.96913,0.65723-2.79958c0.13068-0.30677,0.29132-0.68708,0.58749-0.87431
				c0.20236-0.12791,0.61121-0.07211,0.83939-0.04097c0.34644,0.04731,0.63571,0.25361,0.9332,0.42992
				c0.45465,0.26941,0.91293,0.53338,1.36868,0.80074c0.21338,0.1252,0.83221,0.34652,0.91162,0.58993
				c0.04871,0.14934-0.07449,0.41067-0.11612,0.55668C268.93515,40.83429,268.76523,41.28844,268.69934,41.73639
				 M274.70288,38.43911v3.07953c-0.36633-0.07064-0.7695-0.3856-1.08875-0.57705c-0.51022-0.30596-1.05887-0.55755-1.5553-0.88495
				c0.2146-0.2323,0.57132-0.37561,0.83987-0.542c0.56808-0.352,1.17627-0.84696,1.80417-1.07554 M277.53354,39.96331
				l-1.58643,0.89779l-0.90207,0.47089v-2.86179l1.08871,0.62801L277.53354,39.96331 M280.20868,39.96332l0.37329,1.43089
				l-1.39978-0.83987C279.45389,40.31821,279.87064,40.08638,280.20868,39.96332 M269.53918,39.99443l0.9332,0.55992v0.06221
				l-1.33759,0.77766C269.2323,40.96899,269.31201,40.36634,269.53918,39.99443 M280.42642,41.70528v0.03111h-3.29727
				l1.24426-0.73781l0.46658-0.2244l0.46658,0.24711l1.11984,0.684 M272.43207,41.70529v0.03111h-3.14175l1.11981-0.70304
				l0.43552-0.22987l0.46658,0.23983l1.11984,0.66198 M256.72333,41.33202l0.04901,1.02651l-0.01877,0.41673l-0.40353,0.04986
				v-0.99541h-0.4977v0.80877h-0.40439v-0.77766h-0.52881l0.0311,0.99541h-0.43549v-1.462
				C255.19658,41.39423,256.06204,41.48945,256.72333,41.33202 M263.41119,41.89194l0.27997,1.55532h0.0311l0.09332-1.52422h4.82147
				l-0.71109,2.55072l-0.31052,1.04549l-0.65814,0.39415l-1.64862,0.89334l0.46658,0.99541
				c-1.27707,0.05481-2.64539,0.31915-3.73276,1.02651c-0.2478,0.16113-0.48904,0.31449-0.71545,0.5061
				c-0.07001,0.05941-0.20242,0.14185-0.2099,0.24325c-0.00858,0.11634,0.12216,0.27592,0.18079,0.37048
				c0.18695,0.30142,0.43716,0.58262,0.58902,0.90209c0.83728-0.35897,1.55206-0.82463,2.4574-1.02994
				c0.44778-0.10172,0.91415-0.09269,1.36868-0.1238c0.96451-0.06595,1.96973-0.06283,2.92401,0.11043
				c0.91653,0.16642,1.7926,0.51823,2.67514,0.80472c0.67212,0.21837,1.37839,0.41278,2.08414,0.48215
				c0.26611,0.02613,0.54156,0.06408,0.80878,0.0675c0.12238,0.00122,0.31323-0.03639,0.4256,0.01866
				c0.1181,0.05817,0.11594,0.58231,0.0401,0.67812c-0.10385,0.13096-0.61951,0.05164-0.77679,0.04977
				c-0.87701-0.01058-1.73074-0.298-2.55072-0.58138c-2.30725-0.79757-4.79303-1.19884-7.21667-0.71109
				c-0.67865,0.13656-1.24832,0.48339-1.89749,0.67034c0.20609,0.40376,0.58994,0.77019,0.87875,1.11983
				c0.07861,0.09519,0.20041,0.30889,0.34326,0.29831c0.35049-0.02644,0.7229-0.23454,1.07986-0.28991
				c1.048-0.16175,2.21918-0.18633,3.27628-0.08834c1.49854,0.13842,2.84305,0.76677,4.28256,1.14596
				c0.60028,0.15802,1.24579,0.27498,1.86594,0.30298c0.15088,0.00685,0.62006-0.0392,0.71503,0.08057
				c0.056,0.07092,0.03198,0.20873,0.03198,0.2924c0,0.10981,0.04047,0.32537-0.03198,0.41682
				c-0.09998,0.12629-0.56485,0.04977-0.71457,0.04977c-1.00046,0-1.92661-0.35088-2.86182-0.6635
				c-0.94388-0.31604-1.89651-0.61031-2.89288-0.70301c-0.92407-0.08585-1.8403-0.15615-2.76846-0.0927
				c-0.49442,0.03391-0.97308,0.1518-1.46201,0.21494c0.41348,0.40501,0.85028,0.77704,1.30649,1.1329
				c0.20352,0.15895,0.41357,0.3795,0.65323,0.48184c0.21686,0.0927,0.54514,0.03391,0.77765,0.03391
				c0.52365,0,1.03546,0.00248,1.55533,0.07092c1.22382,0.16082,2.33102,0.68963,3.51501,0.99821
				c0.70251,0.18322,1.39249,0.31542,2.11523,0.38759c0.15555,0.01555,0.68103-0.03453,0.77679,0.08616
				c0.08368,0.10576,0.03198,0.38167,0.03198,0.51014v1.33757c-6.27731,0-12.08908-3.79249-14.71686-9.48745
				c-1.00723-2.18286-1.48959-4.60254-1.48959-6.99894h3.26617l1.64865-0.03111 M269.66354,41.89192
				c0.71976,0.17136,1.62387,0.03111,2.36411,0.03111c0.52045,0,0.96103-0.00843,1.36868,0.37328
				c-0.28217,0.17193-0.79138,0.58515-1.11984,0.61177c-0.13086,0.0106-0.31116-0.09335-0.43549-0.13481
				c-0.39816-0.1327-0.77994-0.32217-1.18204-0.45621c-0.26025-0.08676-0.52219-0.17572-0.77768-0.27563
				c-0.07513-0.02943-0.25247-0.05605-0.21771-0.1495 M280.11533,41.92304c-0.53885,0.35772-1.28336,0.40889-1.86365,0.69118
				c-0.27396,0.13329-0.74484,0.40112-1.06158,0.34021c-0.3522-0.06775-0.77722-0.41462-1.08752-0.59591v-0.06221l0.65323-0.35309
				l1.15094-0.02019L280.11533,41.92304 M285.49673,43.41615h0.0311l0.24884-1.49311h5.16367
				c0,6.41072-3.67709,12.45563-9.61188,15.08381c-1.34402,0.59507-2.77438,1.02464-4.23047,1.23368
				c-0.68234,0.09798-1.37308,0.08305-2.05304,0.16891v-1.89749c2.01413,0,3.81256-1.02216,5.7547-1.38548
				c0.60782-0.11354,1.21997-0.10763,1.83527-0.10763c0.25571,0,0.63147,0.06906,0.87097-0.02675
				c0.20966-0.08368,0.41434-0.29427,0.59103-0.43362c0.43051-0.33999,0.97083-0.7282,1.27536-1.18827
				c-1.78271-0.23019-3.50757-0.34621-5.28809,0.04417c-1.70822,0.37483-3.2623,1.20009-5.03925,1.20009
				c0-0.18322-0.08389-0.64359,0.03198-0.7901c0.08798-0.11105,0.54425-0.07528,0.68347-0.08212
				c0.55399-0.02675,1.1478-0.1714,1.67972-0.3232c1.37244-0.39101,2.66068-0.96306,4.09705-1.09681
				c0.81839-0.07621,1.69995-0.03702,2.52084,0.00035c0.31137,0.0143,0.62958,0.1182,0.94098,0.08336l0.24884,0.03111v0.03111
				h-0.12442v0.03111c0.24014,0.03235,0.61188,0.26534,0.83957,0.21992c0.12784-0.02551,0.21182-0.18695,0.2843-0.28213
				c0.19348-0.25414,0.45511-0.47344,0.62836-0.73784c0.0535-0.0815,0.23734-0.28742,0.15927-0.37888
				c-0.15836-0.18508-0.57019-0.28431-0.79169-0.37608c-0.88217-0.36581-1.85703-0.46193-2.79956-0.52632
				c-1.33633-0.09145-2.78693,0.10016-4.07495,0.45602c-1.45615,0.40221-2.78494,1.03429-4.32379,1.03429v-0.74655
				c1.96277,0,3.65176-0.97798,5.53696-1.32949c1.00037-0.18633,2.03528-0.20468,3.04843-0.13531
				c0.6134,0.04199,1.20941,0.06563,1.80417,0.24294c0.71732,0.2137,1.31018,0.62586,1.99081,0.91079
				c0.1412-0.29738,0.37421-0.57112,0.56427-0.83987c0.07806-0.11043,0.21991-0.2896,0.2059-0.43518
				c-0.01025-0.10794-0.13437-0.18384-0.21027-0.24667c-0.23672-0.19535-0.48309-0.36799-0.74655-0.52507
				c-1.11362-0.66412-2.44247-0.975-3.73279-1.00163l0.49771-0.99541c-0.44327-0.1514-0.86911-0.46483-1.27536-0.69762
				c-0.1658-0.09509-0.41681-0.1886-0.53815-0.33912c-0.21277-0.26459-0.25568-0.81561-0.34589-1.1407
				c-0.24451-0.87904-0.61157-1.80249-0.73349-2.70626h3.82608l0.31915,0.03198l0.09302,0.37241l0.14774,1.08873
				 M294.76639,42.04753l-0.05722,1.02698l-0.05475,0.34317l-0.60349,0.00139l-1.61752-0.09609l0.0311-0.4977l1.80417,0.12443
				l0.06223-0.93319l0.43549,0.03111 M271.87207,43.10525v0.06221l-3.79498,2.11524c0.06619-0.81051,0.45325-1.63666,0.64603-2.4263
				c0.03476-0.14234,0.11267-0.70804,0.26547-0.75237c0.18411-0.05338,0.59061,0.18406,0.76822,0.24792
				c0.70834,0.25461,1.40201,0.51201,2.11523,0.7533 M280.79959,42.07874l0.9332,3.45281
				c-1.03104-0.44429-2.01254-1.12014-2.98624-1.67975c-0.30304-0.17416-0.91547-0.37676-1.08871-0.68434l2.30188-0.80454
				L280.79959,42.07874 M274.70273,43.13634v0.62213l-0.65323-0.21774c0.10855-0.19274,0.44537-0.34326,0.65323-0.40438
				 M256.81653,43.29189l0.01224,0.46392l-0.35443,0.32637l-0.87097,0.64061c0.34755-0.06451,0.89191-0.19043,1.23969-0.13677
				c0.12457,0.01926,0.1745,0.30991,0.07904,0.38488c-0.116,0.09105-0.39874,0.05736-0.54108,0.07615
				c-0.54062,0.07142-1.10344,0.14234-1.64864,0.14234l-0.01222-0.40317l0.35439-0.31697l0.90208-0.67965l-1.36867,0.12443
				l-0.06221-0.40438l2.27075-0.21774 M275.54257,43.57187l-0.49771,0.18664v-0.4666L275.54257,43.57187 M274.29831,44.03847
				l-3.01733,1.05762c0.38672-0.39204,1.07819-0.63516,1.55533-0.91453c0.2218-0.12984,0.49295-0.36002,0.74655-0.41036
				C273.77109,43.73387,274.19116,43.88141,274.29831,44.03847 M277.59561,44.75392v0.03111l-2.17746-0.74655
				c0.08917-0.13028,0.43686-0.25943,0.591-0.20751c0.55563,0.18704,1.06686,0.64928,1.58646,0.92296 M294.64191,44.00738
				l-0.06219,0.4977l-0.52881,0.09332l-0.07901,0.7301l0.45227,0.26531l-0.06219,0.40438l-1.52423-0.71112l-0.55896-0.30409
				l0.03015-0.57121L294.64191,44.00738 M274.7027,44.25612v2.45741h-6.22128c0.50449-0.52029,1.38876-0.75153,2.05304-0.98579
				c0.86139-0.30382,1.72195-0.61115,2.58182-0.91848c0.52258-0.18676,1.04468-0.42892,1.58643-0.55313 M280.83066,46.68243v0.03111
				h-5.78577v-2.45741l2.02191,0.7138l2.20856,0.7953l1.55533,0.9172 M292.83777,44.81605v0.03111l0.71545,0.34217l0.06219-0.4977
				l-0.77765,0.12443 M257.12759,45.5004l0.34216,1.39979l-0.43549,0.09332l-0.21774-0.93319l-0.46658,0.12442l0.18665,0.74655
				c-0.0517,0.02286-0.10187,0.0452-0.15631,0.06116c-0.45831,0.13454-0.21948-0.48259-0.45226-0.65877
				c-0.10216-0.07733-0.36504,0.04504-0.48016,0.06881l0.24886,0.9643l-0.4355,0.09332l-0.34216-1.43089
				c0.67998-0.19152,1.50471-0.49664,2.20857-0.52881 M293.21103,46.58914l1.05762-0.09332l-0.12442,0.4666l-0.96429,0.09332
				c-0.01401,0.10825-0.09488,0.29336-0.05133,0.39571c0.07806,0.18319,0.6246,0.21401,0.79788,0.28864l-0.09332,0.43549
				l-0.83987-0.19025l-1.36868-0.36967c0.08774-0.42532,0.18011-1.11355,0.50705-1.42234
				C292.4841,45.86036,293.16284,46.11993,293.21103,46.58914 M292.15341,47.27348l0.52881,0.12443
				c0.05661-0.19967,0.18573-0.47596,0.10141-0.68297c-0.07339-0.18029-0.33408-0.20331-0.45291-0.05649
				c-0.11508,0.14231-0.16269,0.43633-0.17731,0.61504 M274.70273,47.05576v2.20855c-0.6611,0-1.27359,0.01928-1.92862-0.12474
				c-1.04016-0.22894-2.01523-0.69087-3.04843-0.94905c-1.01675-0.25439-2.09476-0.38821-3.14175-0.38821
				c0.2507-0.25417,0.92319-0.66947,1.27536-0.738c0.49225-0.09581,1.08456-0.00855,1.58643-0.00855H274.70273 M282.66595,47.77121
				v0.03111c-1.09464,0-2.24277,0.14819-3.29727,0.44886c-1.44305,0.41123-2.79672,1.04424-4.32379,1.04424v-2.23966h5.75467
				c0.20447,0,0.45511-0.03879,0.65323,0.01551c0.39972,0.10959,0.86694,0.47148,1.21317,0.69992 M256.06998,49.762
				l-0.13025-0.43425l0.63925-0.65572l-0.10461-0.40314c-0.16641,0.0563-0.66479,0.33533-0.82402,0.24481
				c-0.10175-0.05786-0.14259-0.29489-0.1714-0.40034c0.49251-0.21933,1.00873-0.41406,1.5242-0.57279
				c0.14664-0.04513,0.37082-0.18767,0.52469-0.16717c0.13998,0.01866,0.1936,0.31903,0.23508,0.4289
				c0.14417,0.3823,0.41492,0.91204,0.06989,1.26883c-0.16583,0.1714-0.4418,0.26254-0.6741,0.20219
				c-0.1066-0.02769-0.22961-0.14434-0.34216-0.10172c-0.2883,0.1095-0.45816,0.46193-0.74658,0.5904 M256.84763,48.11336
				c0.05811,0.17171,0.11511,0.48277,0.26111,0.59911c0.13934,0.11105,0.4024,0.04884,0.44397-0.13314
				c0.04416-0.19317-0.11688-0.46999-0.17627-0.65261L256.84763,48.11336 M291.87344,48.17557l-0.34219,0.93319l0.46661,0.18664
				l0.27994-0.74655l0.37329,0.15553l-0.27997,0.74655l0.49771,0.15553l0.31107-0.90209l0.40439,0.12443l-0.49771,1.36868
				c-0.70486-0.10421-1.45081-0.52134-2.11523-0.77766l0.49771-1.36868L291.87344,48.17557 M258.55847,51.224h-0.0311
				c-0.06964-0.08772-0.21606-0.2221-0.21268-0.34217c0.00641-0.22739,0.25854-0.33968,0.07224-0.58978
				c-0.3093-0.41496-1.12854-0.00405-1.29968,0.37483c-0.17474,0.38665,0.23019,0.56458,0.53802,0.52601l-0.18665-0.40438
				c0.08719-0.05101,0.22833-0.1574,0.33554-0.13002c0.18179,0.04635,0.38098,0.61466,0.41101,0.78326l-1.05762,0.4977
				c-0.0762-0.1913-0.04767-0.26565,0.06223-0.43549c-0.79254,0.00685-0.60297-1.06166-0.26633-1.42809
				c0.28592-0.31106,0.87369-0.53223,1.29282-0.41371c0.76047,0.21494,0.82965,1.05108,0.34216,1.56185 M292.74442,50.94405
				l-0.20657,0.37266l-0.54001,0.06315l-1.11981,0.0619v0.03111l1.27536,0.62213c-0.03018,0.10514-0.08774,0.32226-0.22086,0.33471
				c-0.16705,0.01555-0.44296-0.18913-0.58792-0.26565c-0.4473-0.2361-0.90146-0.49646-1.36868-0.69119l0.22803-0.43487
				l0.54965-0.06283l0.99539-0.06221v-0.03111l-1.18204-0.55992c0.01868-0.10452,0.0675-0.31977,0.19318-0.3459
				c0.15335-0.03173,0.41931,0.17917,0.55338,0.2445c0.47687,0.23237,0.94254,0.51917,1.43088,0.72353 M291.22018,50.29082v0.03111
				l0.24884,0.09332v-0.03111L291.22018,50.29082 M259.46054,51.37955l0.21774,0.40438l-1.18204,0.7674l-0.71545,0.41465
				l-0.21774-0.40438L259.46054,51.37955 M291.53125,53.12152c-0.04199,0.11105-0.13937,0.35835-0.28122,0.36363
				c-0.15616,0.00591-0.40063-0.21805-0.52756-0.30142c-0.42865-0.28276-0.85822-0.5904-1.30646-0.83987
				c0.02768-0.11758,0.13126-0.38448,0.28275-0.37856c0.16736,0.00653,0.38916,0.21837,0.526,0.30671
				c0.43643,0.28213,0.87564,0.55898,1.30649,0.84952 M289.2916,53.58813c0.25879,0.35306,0.48495,0.72882,0.7338,1.08873
				c0.08182,0.11851,0.22614,0.28929,0.09238,0.42522c-0.1207,0.12256-0.32538-0.00716-0.45291-0.05817
				c-0.39224-0.15677-0.78793-0.30764-1.18204-0.46037c0.17203,0.15024,0.35056,0.29271,0.52881,0.43549
				c0.18756,0.14993,0.51013,0.32413,0.63113,0.5341c0.07156,0.12474-0.09113,0.32164-0.22675,0.29769
				c-0.16455-0.02893-0.34094-0.2389-0.46661-0.34031c-0.36206-0.29209-0.79663-0.56583-1.11453-0.9052
				c-0.14868-0.15864,0.15646-0.58013,0.33969-0.61342c0.15552-0.02831,0.41495,0.13283,0.5571,0.19161
				c0.21402,0.08803,0.43396,0.17046,0.65323,0.2445c-0.12036-0.21588-0.27249-0.41869-0.41309-0.62213
				c-0.08148-0.11758-0.29364-0.33751-0.27777-0.48868c0.02023-0.19099,0.34125-0.55587,0.53534-0.43176
				c0.3963,0.25352,0.75433,0.61497,1.11984,0.91235c0.12503,0.10172,0.37234,0.2249,0.42987,0.38261
				c0.04636,0.12598-0.14185,0.35554-0.27435,0.33533c-0.21368-0.03204-0.48743-0.35337-0.65323-0.48588
				C289.66675,53.88208,289.48694,53.72157,289.2916,53.58813 M260.64258,53.09043c0.28897,0.41185,0.82187,0.77455,0.77225,1.33757
				c-0.06247,0.7086-0.82373,1.27225-1.5188,1.05606c-0.26706-0.08336-0.44098-0.29769-0.62213-0.49615
				c-0.12677-0.13905-0.29059-0.28276-0.34216-0.4666C259.51303,54.1135,259.99875,53.38872,260.64258,53.09043 M259.55386,54.61464
				c0.24924,0.73318,1.3107,0.42709,1.39404-0.24885c0.03717-0.30173-0.20227-0.78201-0.52304-0.49739
				c-0.11383,0.10079-0.22729,0.20219-0.34219,0.30204C259.90921,54.32099,259.73688,54.4756,259.55386,54.61464
				 M261.91797,57.60085c-0.13123-0.06128-0.34509-0.2109-0.35126-0.37328c-0.0094-0.24667,0.24582-0.36021,0.00836-0.582
				c-0.10086-0.09456-0.26413-0.30422-0.40366-0.32848c-0.1571-0.02737-0.28134,0.17202-0.43271,0.18726
				c-0.11954,0.01213-0.25159-0.14807-0.34497-0.20997c0.33228-0.38789,1.01965-0.63053,1.46201-0.88435
				c0.155-0.08865,0.37735-0.28213,0.55988-0.29364c0.13107-0.00839,0.35275,0.19224,0.39783,0.30827
				c0.06433,0.1658-0.13123,0.47531-0.20343,0.62088c-0.2514,0.50735-0.42627,1.05637-0.69205,1.55532 M262.19794,55.64116
				l-0.65323,0.40438v0.03111l0.37326,0.31106C262.01056,56.21414,262.24869,55.83184,262.19794,55.64116 M288.14069,57.13427
				c-0.07156,0.14091-0.25974,0.33222-0.43549,0.284c-0.12537-0.03422-0.23984-0.17233-0.37329-0.16891
				c-0.09518,0.00248-0.17917,0.09083-0.24884,0.1462c-0.35742,0.28462-0.28961,0.40003-0.15555,0.79633l-0.37326,0.21774
				l-0.80878-2.20855l0.43549-0.28805l0.55994,0.3176L288.14069,57.13427 M263.93988,58.00524h0.03113l0.71542-1.08873
				c0.11002,0.03235,0.32324,0.10296,0.31046,0.2501c-0.01608,0.18477-0.25558,0.41185-0.35947,0.55867
				c-0.28656,0.40501-0.61166,0.81094-0.85306,1.24426l-0.40439-0.24885l0.15552-1.67974h-0.0311l-0.80875,1.18204h-0.03113
				l-0.24521-0.25165l0.29837-0.4949l0.91116-1.30647l0.41669,0.28929l-0.03021,0.55058l-0.07541,0.99541 M286.27429,56.51214
				l0.27997,0.74655l0.40439-0.27996v-0.03111l-0.68433-0.43549 M285.31003,56.60545
				c0.08865,0.47779-0.04108,1.03118,0.11508,1.49311c0.07217,0.21308,0.461,0.54312,0.41745,0.77175
				c-0.02707,0.14215-0.28711,0.23143-0.40811,0.25476c-0.12662-0.23796-0.2753-0.55058-0.47253-0.73629
				c-0.31635-0.29831-0.90051-0.52725-1.30054-0.69461v-0.06221c0.12347-0.08336,0.28244-0.23299,0.43549-0.24792
				c0.26749-0.02613,0.63113,0.30018,0.87097,0.40345l-0.06223-0.93319l0.40439-0.24885 M284.75009,59.65388l-0.46658,0.15056
				l-0.38635-0.28836l-0.67126,0.29334c0.09299,0.38572,0.07028,0.5565-0.31107,0.71545
				c-0.07095-0.56023-0.15274-1.11921-0.22272-1.67975c-0.02115-0.17202-0.14154-0.47624-0.06906-0.6411
				c0.05756-0.13096,0.405-0.28524,0.53162-0.21246c0.23795,0.13624,0.41495,0.40998,0.60129,0.60471
				C284.07074,58.92538,284.53922,59.24732,284.75009,59.65388 M265.49524,59.34282l0.46658,0.12443
				c-0.03568,0.23734,0.11407,0.42522,0.34219,0.50237c0.13107,0.04417,0.35995,0.04915,0.38672-0.12971
				c0.02579-0.17202-0.2164-0.33128-0.32449-0.43207c-0.31439-0.29302-0.53583-0.66225-0.22513-1.05917
				c0.39127-0.49988,1.55612-0.06874,1.46103,0.58791c-0.0257,0.17731-0.3078,0.11167-0.4173,0.04822
				c-0.07498-0.04386-0.49609-0.79041-0.64456-0.29396c-0.05267,0.17637,0.2164,0.34248,0.32364,0.43954
				c0.31934,0.28898,0.54883,0.69803,0.21109,1.08282c-0.6066,0.6915-1.63739-0.13905-1.57977-0.87036 M283.07037,58.59628
				l0.09332,0.77766l0.43549-0.18664L283.07037,58.59628 M268.66809,58.93845c-0.09335,0.40345-0.26071,0.78823-0.38647,1.18205
				c-0.047,0.14713-0.15106,0.33843-0.08801,0.4949c0.1026,0.25445,0.45642,0.27343,0.60358,0.06439
				c0.29163-0.41403,0.35019-1.02994,0.55527-1.49249l0.37326,0.12443c-0.16772,0.51543-0.31549,1.46636-0.74945,1.82221
				c-0.39777,0.32599-1.20197,0.05693-1.29333-0.45353c-0.09222-0.51574,0.29898-1.45205,0.54968-1.89749L268.66809,58.93845
				 M280.08417,59.15619c0.3432-0.11167,0.71613-0.31075,1.07968-0.33129c1.2088-0.06843,1.48224,1.70619,0.47562,2.18958
				c-0.14774,0.07093-0.66849,0.32506-0.81802,0.22366c-0.1232-0.08336-0.1611-0.39256-0.21014-0.52663
				c-0.18445-0.50486-0.40329-1.03242-0.52716-1.55532 M280.67517,59.37392l0.46658,1.36868
				c0.22055-0.07186,0.43268-0.135,0.56552-0.34217c0.21619-0.33657-0.01306-0.97207-0.37888-1.11517
				c-0.21558-0.0843-0.44781,0.02177-0.65323,0.08865 M271.03217,60.86702h0.0311c0.11221-0.26938,0.26727-0.52259,0.40872-0.77766
				c0.05453-0.0983,0.10007-0.24667,0.19876-0.31013c0.11298-0.07279,0.59238,0.00069,0.64789,0.13283
				c0.06201,0.14776-0.05508,0.45944-0.08575,0.6128c-0.10141,0.50766-0.20004,1.01594-0.29861,1.52421l-0.49771-0.09332
				l0.31107-1.55532h-0.0311c-0.12207,0.42367-0.42316,0.8209-0.6232,1.21315c-0.06931,0.13593-0.17603,0.33626-0.3623,0.21215
				c-0.10611-0.07061-0.07874-0.28618-0.09479-0.39878c-0.05817-0.40812-0.13171-0.83179-0.13287-1.24426h-0.0311l-0.31107,1.55532
				l-0.37326-0.06221c0.01523-0.73815,0.26401-1.51581,0.40439-2.23966l0.66125,0.15366l0.06738,0.31293l0.11124,0.9643
				 M278.49774,60.83594l0.52881,0.93319c-0.13544,0.01712-0.3317,0.09332-0.46335,0.04293
				c-0.19614-0.07465-0.41974-0.60129-0.50098-0.78948l-0.46658,0.09332l0.15555,0.87098l-0.44794,0.03017l-0.12518-0.52787
				l-0.29788-1.64864c0.43341-0.05506,1.0755-0.31231,1.49313-0.13282c0.4313,0.18539,0.57513,0.88218,0.12442,1.12823
				 M274.17395,61.05369c0.40445,0.21183,0.42966,0.85978-0.00003,1.07099c-0.3877,0.19068-0.98029,0.04884-1.39975,0.04884
				l0.06219-2.27077c0.41525,0.07715,0.87546-0.05101,1.27536,0.1123C274.58679,60.20946,274.52039,60.784,274.17395,61.05369
				 M276.4758,59.90275c0,0.10296,0.03662,0.29613-0.03183,0.38105c-0.11288,0.13998-0.75647,0.08554-0.93243,0.08554l0.0311,0.4977
				c0.1846,0,0.60681-0.11945,0.75888,0.00087c0.08267,0.06532,0.07544,0.30018-0.02213,0.34901
				c-0.16898,0.08461-0.54565,0.04635-0.73676,0.05443l0.0311,0.4977l1.02649-0.0311v0.40439l-1.4931,0.06221l-0.09332-2.23966
				l1.46201-0.06221 M277.44009,60.15153c0.00565,0.12941,0.01416,0.40781,0.09888,0.50952
				c0.06302,0.07559,0.19626,0.01773,0.27441,0.00217c0.12738-0.02551,0.29483-0.03546,0.38129-0.14713
				c0.18378-0.23734-0.05743-0.43674-0.28799-0.42398C277.75037,60.10113,277.59622,60.13908,277.44009,60.15153
				 M273.27182,60.83586c0.12503,0.00528,0.2478,0.03266,0.37329,0.03048c0.06219-0.00121,0.12601-0.00528,0.18372-0.0308
				c0.55719-0.24698-0.36835-0.77051-0.53824-0.42522c-0.05493,0.11167-0.01874,0.30329-0.01874,0.42554 M273.24072,61.76905
				c0.18246,0,0.44888,0.04915,0.61887-0.02302c0.5141-0.21837-0.34021-0.7674-0.58688-0.45602
				C273.19244,61.39141,273.24072,61.64555,273.24072,61.76905z"/>
		</g>
	</g>
</g>
</svg>
