<?xml version="1.0" encoding="utf-8"?>
<!-- Generator: Adobe Illustrator 26.2.1, SVG Export Plug-In . SVG Version: 6.00 Build 0)  -->
<svg version="1.1" id="Layer_1" xmlns="http://www.w3.org/2000/svg" xmlns:xlink="http://www.w3.org/1999/xlink" x="0px" y="0px"
	 viewBox="0 0 203 54" style="enable-background:new 0 0 203 54;" xml:space="preserve">
<style type="text/css">
	.st0{fill:#FFFF00;}
	.st1{fill:#040203;}
	.st2{fill:#333333;}
	.st3{fill:none;stroke:#666666;stroke-width:0.1;stroke-miterlimit:10;}
</style>
<g id="a">
</g>
<g id="b">
	<g id="c" transform="translate(-249.93148,-17.006411)">
		<g id="d">
			<path id="e" class="st0" d="M267.3,22.9c-0.2,0-0.4,0.2-0.6,0.3c-0.5,0.3-1.1,0.6-1.6,0.9c-2,1.1-3.9,2.4-5.7,3.8
				c-0.5,0.4-1,0.8-1.5,1.2c-0.2,0.2-0.4,0.4-0.7,0.5c-0.1,0.2-0.4,0.4-0.7,0.6c-0.4,0.3-0.8,0.7-1.2,1.1c-1.3,1.2-2.5,2.4-3.7,3.6
				c-0.4,0.4-0.8,0.9-1.2,1.4c-0.2,0.3-0.4,0.4-0.4,0.8c-0.3,2.5,0.2,5.1,0.7,7.6c1,5,2.9,10,5.1,14.6c0.8,1.6,1.5,3.3,2.5,4.8
				c0.2,0.4,0.4,0.7,0.7,1.1c0.1,0.2,0.2,0.4,0.3,0.5c0.1,0.1,0.4,0.1,0.5,0.2c0.4,0.1,0.8,0.2,1.2,0.3c1.8,0.5,3.8,0.9,5.7,1.1
				c5.7,0.6,11.6,0.7,17.3-0.1c1.6-0.2,3.2-0.5,4.8-1c0.5-0.2,1.3-0.2,1.7-0.5c0.2-0.1,0.2-0.4,0.3-0.5c0.2-0.4,0.4-0.7,0.6-1.1
				c0.9-1.6,1.7-3.2,2.5-4.9c2.2-4.6,4-9.6,5.1-14.6c0.5-2.4,1-4.9,0.8-7.4c-0.1-0.9-1-1.7-1.6-2.3c-1.2-1.2-2.3-2.4-3.6-3.5
				c-0.4-0.4-0.9-0.8-1.3-1.2c-0.2-0.2-0.5-0.4-0.7-0.6c-0.3-0.1-0.6-0.4-0.8-0.6c-0.4-0.4-0.9-0.7-1.4-1.1
				c-1.8-1.4-3.7-2.7-5.7-3.8c-0.5-0.3-0.9-0.5-1.4-0.8c-0.2-0.1-0.6-0.4-0.8-0.4c-0.1-0.2-0.5-0.3-0.7-0.4
				c-0.6-0.3-1.2-0.5-1.7-0.8c-1.2-0.5-2.4-0.9-3.6-1.2c-0.6-0.1-1.1-0.3-1.7-0.3c-0.5,0-0.9,0.2-1.4,0.3c-1.1,0.2-2.1,0.6-3.1,1
				c-0.7,0.3-1.5,0.6-2.2,1C267.8,22.6,267.4,22.7,267.3,22.9"/>
			<path id="f" class="st1" d="M267.3,22.9c-0.2,0-0.4,0.2-0.6,0.3c-0.5,0.3-1.1,0.6-1.6,0.9c-2,1.1-3.9,2.4-5.7,3.8
				c-0.5,0.4-1,0.8-1.5,1.2c-0.2,0.2-0.4,0.4-0.7,0.5c-0.1,0.2-0.4,0.4-0.7,0.6c-0.4,0.3-0.8,0.7-1.2,1.1c-1.3,1.2-2.5,2.4-3.7,3.6
				c-0.4,0.4-0.8,0.9-1.2,1.4c-0.2,0.3-0.4,0.4-0.4,0.8c-0.3,2.5,0.2,5.1,0.7,7.6c1,5,2.9,10,5.1,14.6c0.8,1.6,1.5,3.3,2.5,4.8
				c0.2,0.4,0.4,0.7,0.7,1.1c0.1,0.2,0.2,0.4,0.3,0.5c0.1,0.1,0.4,0.1,0.5,0.2c0.4,0.1,0.8,0.2,1.2,0.3c1.8,0.5,3.8,0.9,5.7,1.1
				c5.7,0.6,11.6,0.7,17.3-0.1c1.6-0.2,3.2-0.5,4.8-1c0.5-0.2,1.3-0.2,1.7-0.5c0.2-0.1,0.2-0.4,0.3-0.5c0.2-0.4,0.4-0.7,0.6-1.1
				c0.9-1.6,1.7-3.2,2.5-4.9c2.2-4.6,4-9.6,5.1-14.6c0.5-2.4,1-4.9,0.8-7.4c-0.1-0.9-1-1.7-1.6-2.3c-1.2-1.2-2.3-2.4-3.6-3.5
				c-0.4-0.4-0.9-0.8-1.3-1.2c-0.2-0.2-0.5-0.4-0.7-0.6c-0.3-0.1-0.6-0.4-0.8-0.6c-0.4-0.4-0.9-0.7-1.4-1.1
				c-1.8-1.4-3.7-2.7-5.7-3.8c-0.5-0.3-0.9-0.5-1.4-0.8c-0.2-0.1-0.6-0.4-0.8-0.4c-0.1-0.2-0.5-0.3-0.7-0.4
				c-0.6-0.3-1.2-0.5-1.7-0.8c-1.2-0.5-2.4-0.9-3.6-1.2c-0.6-0.1-1.1-0.3-1.7-0.3c-0.5,0-0.9,0.2-1.4,0.3c-1.1,0.2-2.1,0.6-3.1,1
				c-0.7,0.3-1.5,0.6-2.2,1C267.8,22.6,267.4,22.7,267.3,22.9 M272.2,24.9l-0.7,0.2v0h0.1v0c-1,0.2-2,0.7-2.9,1.1
				c-1.5,0.7-3,1.3-4.6,2c-0.8,0.3-1.6,0.7-2.4,1c0.8,0.8,1.6,1.6,2.5,2.2v0.1l-5.6,3.2l-1.7,1l-1,0.6l0.8-0.8l1.9-1.8l2.1-2
				l0.9-0.8v0l-1-1.1l-0.4-0.6c0.9-0.5,1.6-1.1,2.5-1.7c1.4-1,2.8-2,4.3-2.9c0.6-0.4,1.2-0.9,1.9-1.3c0.2-0.1,0.5-0.5,0.7-0.5
				c0.2,0,0.5,0.3,0.6,0.5c0.4,0.4,0.9,0.7,1.3,1.1C271.8,24.5,272.1,24.7,272.2,24.9 M289.1,29.2L289.1,29.2
				c-0.3,0.4-0.6,0.8-1,1.2c-0.1,0.1-0.3,0.3-0.4,0.5c0,0.1,0.2,0.3,0.3,0.4c0.4,0.4,0.7,0.7,1.1,1.1c1,0.9,1.9,1.8,2.8,2.8
				c0.4,0.4,1,0.8,1.3,1.3l-1.2-0.7l-2-1.2l-5-2.9c0.1-0.3,0.5-0.5,0.8-0.8c0.6-0.5,1.2-1,1.7-1.5c-0.8-0.3-1.7-0.7-2.5-1.1l-4.8-2
				c-0.9-0.4-1.7-0.8-2.6-1v0h0.1v0l-0.7-0.2c0.1-0.2,0.4-0.4,0.6-0.6c0.4-0.4,0.8-0.7,1.2-1.1c0.1-0.1,0.4-0.5,0.6-0.5
				c0.2,0,0.5,0.3,0.7,0.4c0.6,0.4,1.2,0.8,1.8,1.2c1.5,1,2.9,2,4.4,3.1C287.5,28.1,288.4,28.6,289.1,29.2 M283.8,31.7L283.8,31.7
				c-1.3,0.8-2.9,1.3-4.3,1.6c-0.4,0.1-0.7,0.2-1.1,0.2c-0.1,0-0.3,0.1-0.4,0c-0.2-0.1-0.3-0.7-0.3-0.9c-0.2-0.7-0.4-1.3-0.6-2
				c-0.1-0.2-0.1-0.6-0.2-0.8c-0.1-0.1-0.3-0.1-0.5-0.1h-2.8c-0.2,0-0.5-0.1-0.6,0c-0.2,0.1-0.3,0.7-0.3,1c-0.3,1-0.6,1.9-0.8,2.9
				c-0.5,0-1.1-0.2-1.6-0.3c-1.1-0.3-2.3-0.6-3.4-1.1c-0.4-0.2-0.8-0.4-1.2-0.5c0.2-0.3,0.7-0.5,1-0.7c1-0.6,2-1,3.1-1.4
				C274.6,28.3,279.7,29,283.8,31.7 M274.7,30.1v1c-0.4-0.1-0.9-0.6-1.2-1H274.7 M276.2,30.1c-0.3,0.4-0.8,0.7-1.2,1v-1H276.2
				 M273.1,30.2c0.4,0.3,0.7,0.6,1,0.8c0.1,0.1,0.3,0.2,0.3,0.3c0,0.2-0.4,0.4-0.5,0.5c-0.6,0.5-1.1,1-1.7,1.4l0.6-2.1L273.1,30.2
				 M276.6,30.2l0.4,1.3l0.5,1.8l-1.6-1.4l-0.7-0.6L276.6,30.2 M274.7,31.8v2.1l-2.3-0.1c0.3-0.4,0.9-0.8,1.3-1.1
				C274,32.3,274.3,32,274.7,31.8 M271.8,33.8l-0.9,3.2l-0.5,1.7c-1,0-2.2-0.3-3.2-0.5c0.1-0.3,0.4-0.6,0.6-0.8
				c0.5-0.7,1.2-1.6,2.1-1.8v0c-1.1,0-2.1,0.4-3,1.2c-0.3,0.2-0.5,0.5-0.8,0.7c-0.1,0.1-0.2,0.3-0.4,0.4c-0.1,0-0.3,0-0.4-0.1
				c-0.3-0.1-0.6-0.2-0.9-0.2c-1.1-0.3-2.2-0.8-3.2-1.2c0.2-0.4,0.5-0.8,0.8-1.1c0.7-0.9,1.5-1.7,2.4-2.4c0.3-0.2,0.6-0.5,0.8-0.7
				c0.1-0.1,0.2-0.2,0.4-0.2c0.2,0,0.4,0.2,0.6,0.3c0.4,0.2,0.9,0.4,1.3,0.6c0.9,0.4,1.9,0.6,2.9,0.9
				C270.8,33.6,271.3,33.7,271.8,33.8 M275.1,31.8l1.4,1.2l0.8,0.7c-0.7,0.2-1.5,0.2-2.2,0.2v-1.4L275.1,31.8 M288.3,36.3
				c-1.2,0.5-2.3,0.9-3.5,1.3c-0.3,0.1-0.6,0.2-0.9,0.2c-0.1,0-0.3,0.1-0.4,0.1c-0.3-0.1-0.6-0.5-0.8-0.7c-0.4-0.4-0.9-0.7-1.3-1.1
				c-0.2-0.2-0.5-0.4-0.7-0.4c-0.2-0.1-0.5,0.5-0.6,0.7c0,0.1-0.1,0.2-0.1,0.2c0,0.2,0.5,0.6,0.7,0.7c0.1,0,0.3-0.1,0.5-0.1
				c0.4,0.1,1,0.6,1.2,1c-1,0.1-2,0.5-3,0.5l-0.4-1.6l-0.9-3.2c0.4-0.1,0.8-0.1,1.1-0.2c1-0.2,2-0.5,3-0.9c0.4-0.2,0.9-0.4,1.3-0.6
				c0.1-0.1,0.4-0.3,0.6-0.2c0.1,0,0.3,0.2,0.4,0.2c0.3,0.2,0.5,0.4,0.8,0.6c0.9,0.7,1.7,1.5,2.3,2.4
				C287.7,35.5,288.1,35.9,288.3,36.3 M277.4,33.8L277.4,33.8c-0.8,0.6-1.5,1.2-2.4,1.6V34C275.8,34,276.6,34,277.4,33.8
				 M274.7,35.5l-0.8-0.5l-1.6-1.1l0.7,0l1.1,0.1l0.6,0l0,0.4V35.5 M277.7,34.1l1.2,4.2c-0.6-0.2-1.1-0.7-1.6-1
				c-0.7-0.5-1.4-0.9-2.1-1.4c0.2-0.3,0.5-0.4,0.8-0.6C276.5,34.9,277.1,34.3,277.7,34.1 M274.5,35.8l-2.2,1.5l-1.4,0.9l1.1-4.1
				c0.3,0.1,0.6,0.3,0.8,0.5C273.4,35,274.1,35.4,274.5,35.8 M274.7,36.1V39l-3.9-0.2c0.2-0.3,0.7-0.5,1-0.7
				c0.6-0.4,1.3-0.9,1.9-1.3C274,36.6,274.4,36.3,274.7,36.1 M275.1,36.2c0.7,0.5,1.5,1,2.2,1.5c0.5,0.3,1.1,0.6,1.5,1.1l-1.2,0.1
				L275,39V37L275.1,36.2 M265.6,38c-0.2,0.2-0.5,0.8-0.7,0.9c-0.2,0-0.4-0.1-0.6-0.1c-0.1,0.4-0.5,0.7-0.5,1.1
				c0,0.2,0.2,0.4,0.2,0.6c-0.1,0.6-0.3,1.1-0.4,1.7c-0.2,1-0.1,1.9-0.1,2.9h-4.9c0.1-0.2,0-0.5,0-0.7c0-0.5,0.1-1,0.2-1.5
				c0.2-1.5,0.7-3,1.3-4.4c0.2-0.5,0.5-1,0.8-1.4c0.1-0.1,0.2-0.4,0.4-0.5c0.1,0,0.2,0.1,0.3,0.1c0.3,0.1,0.6,0.2,0.8,0.4
				C263.4,37.3,264.5,37.6,265.6,38 M290.9,45h-5.2c0-1.2-0.1-2.4-0.4-3.6c-0.1-0.4-0.4-1,0.1-1.2l-0.6-1.1l-0.4,0.2l-0.8-1.2
				c1.1-0.2,2.3-0.6,3.4-1c0.3-0.1,0.6-0.3,1-0.4c0.1,0,0.3-0.1,0.4-0.1c0.2,0,0.3,0.3,0.3,0.5c0.3,0.5,0.5,0.9,0.7,1.4
				C290.4,40.4,290.9,42.7,290.9,45 M280.1,41.7l-0.5-1.8l-0.3-1.1c0.7,0,1.5-0.2,2.1-0.3c0.2,0,0.7-0.2,0.9-0.1
				c0.1,0.1,0.2,0.2,0.3,0.3c0.2,0.3,0.7,0.9,0.3,1.4c-0.2,0.2-0.5,0.3-0.7,0.4C281.7,40.9,280.9,41.4,280.1,41.7 M270.4,38.9
				l-0.8,3c-0.3,0-0.5-0.2-0.7-0.4c-0.5-0.3-0.9-0.5-1.4-0.8c-0.3-0.1-0.7-0.3-0.8-0.5c-0.3-0.4,0-1,0.2-1.3
				c0.1-0.1,0.2-0.4,0.3-0.4c0.2-0.1,0.7,0.1,0.9,0.1C268.8,38.7,269.6,38.7,270.4,38.9 M278.5,38.9L278.5,38.9l-2.5,1.5l-1,0.6
				v-1.9L278.5,38.9 M274.7,39.1v1.9l-0.9-0.5l-2.5-1.5c0.3-0.1,0.7,0,1,0C273.1,39.1,273.9,39.1,274.7,39.1 M279.1,39l0.8,2.9
				l-1.3,0.8l-0.6,0.3l-0.8-0.4l-1.9-1.1v-0.1c0.9-0.5,1.8-1.1,2.7-1.6C278.2,39.5,278.7,39.1,279.1,39 M274.5,41.3L274.5,41.3
				c-0.7,0.5-1.3,0.9-2,1.3c-0.2,0.1-0.5,0.4-0.8,0.4c-0.2,0-0.4-0.2-0.6-0.3c-0.4-0.2-0.8-0.5-1.2-0.7l0.8-3
				c0.4,0.1,0.9,0.5,1.3,0.7C272.8,40.3,273.6,40.8,274.5,41.3 M285,39.3L285,39.3L285,39.3 M285.1,39.4L285.1,39.4L285.1,39.4
				 M285.2,45h-3.9c-0.1,0-0.2,0-0.3,0c-0.2-0.1-0.2-0.6-0.3-0.8c-0.1-0.3-0.3-0.8-0.3-1.1c0.1-0.2,0.4-0.3,0.6-0.4
				c0.5-0.3,1-0.6,1.5-0.9c0.3-0.2,0.9-0.7,1.3-0.6c0.4,0.1,0.5,0.6,0.6,0.9C284.9,43,285.2,44,285.2,45 M268.7,45h-4.8
				c0-0.9,0.3-2,0.7-2.8c0.1-0.3,0.3-0.7,0.6-0.9c0.2-0.1,0.6-0.1,0.8,0c0.3,0,0.6,0.3,0.9,0.4c0.5,0.3,0.9,0.5,1.4,0.8
				c0.2,0.1,0.8,0.3,0.9,0.6c0,0.1-0.1,0.4-0.1,0.6C268.9,44.1,268.8,44.5,268.7,45 M274.7,41.7v3.1c-0.4-0.1-0.8-0.4-1.1-0.6
				c-0.5-0.3-1.1-0.6-1.6-0.9c0.2-0.2,0.6-0.4,0.8-0.5C273.5,42.4,274.1,41.9,274.7,41.7 M277.5,43.2l-1.6,0.9l-0.9,0.5v-2.9
				l1.1,0.6L277.5,43.2 M280.2,43.2l0.4,1.4l-1.4-0.8C279.5,43.6,279.9,43.3,280.2,43.2 M269.5,43.2l0.9,0.6v0.1l-1.3,0.8
				C269.2,44.2,269.3,43.6,269.5,43.2 M280.4,44.9L280.4,44.9l-3.3,0l1.2-0.7l0.5-0.2l0.5,0.2L280.4,44.9 M272.4,44.9L272.4,44.9
				l-3.1,0l1.1-0.7l0.4-0.2l0.5,0.2L272.4,44.9 M256.7,44.6l0,1l0,0.4l-0.4,0v-1h-0.5v0.8h-0.4v-0.8h-0.5l0,1h-0.4v-1.5
				C255.2,44.6,256.1,44.7,256.7,44.6 M263.4,45.1l0.3,1.6h0l0.1-1.5h4.8l-0.7,2.6l-0.3,1l-0.7,0.4l-1.6,0.9l0.5,1
				c-1.3,0.1-2.6,0.3-3.7,1c-0.2,0.2-0.5,0.3-0.7,0.5c-0.1,0.1-0.2,0.1-0.2,0.2c0,0.1,0.1,0.3,0.2,0.4c0.2,0.3,0.4,0.6,0.6,0.9
				c0.8-0.4,1.6-0.8,2.5-1c0.4-0.1,0.9-0.1,1.4-0.1c1-0.1,2-0.1,2.9,0.1c0.9,0.2,1.8,0.5,2.7,0.8c0.7,0.2,1.4,0.4,2.1,0.5
				c0.3,0,0.5,0.1,0.8,0.1c0.1,0,0.3,0,0.4,0c0.1,0.1,0.1,0.6,0,0.7c-0.1,0.1-0.6,0.1-0.8,0c-0.9,0-1.7-0.3-2.6-0.6
				c-2.3-0.8-4.8-1.2-7.2-0.7c-0.7,0.1-1.2,0.5-1.9,0.7c0.2,0.4,0.6,0.8,0.9,1.1c0.1,0.1,0.2,0.3,0.3,0.3c0.4,0,0.7-0.2,1.1-0.3
				c1-0.2,2.2-0.2,3.3-0.1c1.5,0.1,2.8,0.8,4.3,1.1c0.6,0.2,1.2,0.3,1.9,0.3c0.2,0,0.6,0,0.7,0.1c0.1,0.1,0,0.2,0,0.3
				c0,0.1,0,0.3,0,0.4c-0.1,0.1-0.6,0-0.7,0c-1,0-1.9-0.4-2.9-0.7c-0.9-0.3-1.9-0.6-2.9-0.7c-0.9-0.1-1.8-0.2-2.8-0.1
				c-0.5,0-1,0.2-1.5,0.2c0.4,0.4,0.9,0.8,1.3,1.1c0.2,0.2,0.4,0.4,0.7,0.5c0.2,0.1,0.5,0,0.8,0c0.5,0,1,0,1.6,0.1
				c1.2,0.2,2.3,0.7,3.5,1c0.7,0.2,1.4,0.3,2.1,0.4c0.2,0,0.7,0,0.8,0.1c0.1,0.1,0,0.4,0,0.5v1.3c-6.3,0-12.1-3.8-14.7-9.5
				c-1-2.2-1.5-4.6-1.5-7h3.3L263.4,45.1 M269.7,45.1c0.7,0.2,1.6,0,2.4,0c0.5,0,1,0,1.4,0.4c-0.3,0.2-0.8,0.6-1.1,0.6
				c-0.1,0-0.3-0.1-0.4-0.1c-0.4-0.1-0.8-0.3-1.2-0.5c-0.3-0.1-0.5-0.2-0.8-0.3C269.8,45.3,269.6,45.2,269.7,45.1 M280.1,45.2
				c-0.5,0.4-1.3,0.4-1.9,0.7c-0.3,0.1-0.7,0.4-1.1,0.3c-0.4-0.1-0.8-0.4-1.1-0.6v-0.1l0.7-0.4l1.2,0L280.1,45.2 M285.5,46.7
				L285.5,46.7l0.3-1.5h5.2c0,6.4-3.7,12.5-9.6,15.1c-1.3,0.6-2.8,1-4.2,1.2c-0.7,0.1-1.4,0.1-2.1,0.2v-1.9c2,0,3.8-1,5.8-1.4
				c0.6-0.1,1.2-0.1,1.8-0.1c0.3,0,0.6,0.1,0.9,0c0.2-0.1,0.4-0.3,0.6-0.4c0.4-0.3,1-0.7,1.3-1.2c-1.8-0.2-3.5-0.3-5.3,0
				c-1.7,0.4-3.3,1.2-5,1.2c0-0.2-0.1-0.6,0-0.8c0.1-0.1,0.5-0.1,0.7-0.1c0.6,0,1.1-0.2,1.7-0.3c1.4-0.4,2.7-1,4.1-1.1
				c0.8-0.1,1.7,0,2.5,0c0.3,0,0.6,0.1,0.9,0.1l0.2,0v0h-0.1v0c0.2,0,0.6,0.3,0.8,0.2c0.1,0,0.2-0.2,0.3-0.3
				c0.2-0.3,0.5-0.5,0.6-0.7c0.1-0.1,0.2-0.3,0.2-0.4c-0.2-0.2-0.6-0.3-0.8-0.4c-0.9-0.4-1.9-0.5-2.8-0.5c-1.3-0.1-2.8,0.1-4.1,0.5
				c-1.5,0.4-2.8,1-4.3,1v-0.7c2,0,3.7-1,5.5-1.3c1-0.2,2-0.2,3-0.1c0.6,0,1.2,0.1,1.8,0.2c0.7,0.2,1.3,0.6,2,0.9
				c0.1-0.3,0.4-0.6,0.6-0.8c0.1-0.1,0.2-0.3,0.2-0.4c0-0.1-0.1-0.2-0.2-0.2c-0.2-0.2-0.5-0.4-0.7-0.5c-1.1-0.7-2.4-1-3.7-1l0.5-1
				c-0.4-0.2-0.9-0.5-1.3-0.7c-0.2-0.1-0.4-0.2-0.5-0.3c-0.2-0.3-0.3-0.8-0.3-1.1c-0.2-0.9-0.6-1.8-0.7-2.7h3.8l0.3,0l0.1,0.4
				L285.5,46.7 M294.8,45.3l-0.1,1l-0.1,0.3l-0.6,0l-1.6-0.1l0-0.5l1.8,0.1l0.1-0.9L294.8,45.3 M271.9,46.3L271.9,46.3l-3.8,2.2
				c0.1-0.8,0.5-1.6,0.6-2.4c0-0.1,0.1-0.7,0.3-0.8c0.2-0.1,0.6,0.2,0.8,0.2C270.5,45.8,271.2,46.1,271.9,46.3 M280.8,45.3l0.9,3.5
				c-1-0.4-2-1.1-3-1.7c-0.3-0.2-0.9-0.4-1.1-0.7l2.3-0.8L280.8,45.3 M274.7,46.4V47l-0.7-0.2C274.2,46.6,274.5,46.4,274.7,46.4
				 M256.8,46.5l0,0.5l-0.4,0.3l-0.9,0.6c0.3-0.1,0.9-0.2,1.2-0.1c0.1,0,0.2,0.3,0.1,0.4c-0.1,0.1-0.4,0.1-0.5,0.1
				c-0.5,0.1-1.1,0.1-1.6,0.1l0-0.4l0.4-0.3L256,47l-1.4,0.1l-0.1-0.4L256.8,46.5 M275.5,46.8L275,47v-0.5L275.5,46.8 M274.3,47.3
				l-3,1.1c0.4-0.4,1.1-0.6,1.6-0.9c0.2-0.1,0.5-0.4,0.7-0.4C273.8,47,274.2,47.1,274.3,47.3 M277.6,48L277.6,48l-2.2-0.7
				c0.1-0.1,0.4-0.3,0.6-0.2C276.6,47.3,277.1,47.7,277.6,48 M294.6,47.2l-0.1,0.5l-0.5,0.1l-0.1,0.7l0.5,0.3l-0.1,0.4l-1.5-0.7
				l-0.6-0.3l0-0.6L294.6,47.2 M274.7,47.5V50h-6.2c0.5-0.5,1.4-0.8,2.1-1c0.9-0.3,1.7-0.6,2.6-0.9
				C273.6,47.9,274.2,47.6,274.7,47.5 M280.8,49.9L280.8,49.9l-5.8,0v-2.5l2,0.7l2.2,0.8L280.8,49.9 M292.8,48.1L292.8,48.1l0.7,0.4
				l0.1-0.5L292.8,48.1 M257.1,48.7l0.3,1.4l-0.4,0.1l-0.2-0.9l-0.5,0.1l0.2,0.7c-0.1,0-0.1,0-0.2,0.1c-0.5,0.1-0.2-0.5-0.5-0.7
				c-0.1-0.1-0.4,0-0.5,0.1l0.2,1l-0.4,0.1l-0.3-1.4C255.6,49.1,256.4,48.8,257.1,48.7 M293.2,49.8l1.1-0.1l-0.1,0.5l-1,0.1
				c0,0.1-0.1,0.3-0.1,0.4c0.1,0.2,0.6,0.2,0.8,0.3l-0.1,0.4l-0.8-0.2l-1.4-0.4c0.1-0.4,0.2-1.1,0.5-1.4
				C292.5,49.1,293.2,49.4,293.2,49.8 M292.2,50.5l0.5,0.1c0.1-0.2,0.2-0.5,0.1-0.7c-0.1-0.2-0.3-0.2-0.5-0.1
				C292.2,50,292.2,50.3,292.2,50.5 M274.7,50.3v2.2c-0.7,0-1.3,0-1.9-0.1c-1-0.2-2-0.7-3-0.9c-1-0.3-2.1-0.4-3.1-0.4
				c0.3-0.3,0.9-0.7,1.3-0.7c0.5-0.1,1.1,0,1.6,0H274.7 M282.7,51L282.7,51c-1.1,0-2.2,0.2-3.3,0.5c-1.4,0.4-2.8,1-4.3,1v-2.2h5.8
				c0.2,0,0.5,0,0.7,0C281.9,50.4,282.3,50.8,282.7,51 M256.1,53l-0.1-0.4l0.6-0.7l-0.1-0.4c-0.2,0.1-0.7,0.3-0.8,0.2
				c-0.1-0.1-0.1-0.3-0.2-0.4c0.5-0.2,1-0.4,1.5-0.6c0.1,0,0.4-0.2,0.5-0.2c0.1,0,0.2,0.3,0.2,0.4c0.1,0.4,0.4,0.9,0.1,1.3
				c-0.2,0.2-0.4,0.3-0.7,0.2c-0.1,0-0.2-0.1-0.3-0.1C256.5,52.5,256.4,52.9,256.1,53 M256.8,51.4c0.1,0.2,0.1,0.5,0.3,0.6
				c0.1,0.1,0.4,0,0.4-0.1c0-0.2-0.1-0.5-0.2-0.7L256.8,51.4 M291.9,51.4l-0.3,0.9l0.5,0.2l0.3-0.7l0.4,0.2l-0.3,0.7l0.5,0.2
				l0.3-0.9l0.4,0.1l-0.5,1.4c-0.7-0.1-1.5-0.5-2.1-0.8l0.5-1.4L291.9,51.4 M258.6,54.5L258.6,54.5c-0.1-0.1-0.2-0.2-0.2-0.3
				c0-0.2,0.3-0.3,0.1-0.6c-0.3-0.4-1.1,0-1.3,0.4c-0.2,0.4,0.2,0.6,0.5,0.5l-0.2-0.4c0.1-0.1,0.2-0.2,0.3-0.1
				c0.2,0,0.4,0.6,0.4,0.8l-1.1,0.5c-0.1-0.2,0-0.3,0.1-0.4c-0.8,0-0.6-1.1-0.3-1.4c0.3-0.3,0.9-0.5,1.3-0.4
				C259,53.1,259,54,258.6,54.5 M292.7,54.2l-0.2,0.4l-0.5,0.1l-1.1,0.1v0l1.3,0.6c0,0.1-0.1,0.3-0.2,0.3c-0.2,0-0.4-0.2-0.6-0.3
				c-0.4-0.2-0.9-0.5-1.4-0.7l0.2-0.4l0.5-0.1l1-0.1v0l-1.2-0.6c0-0.1,0.1-0.3,0.2-0.3c0.2,0,0.4,0.2,0.6,0.2
				C291.8,53.7,292.3,54,292.7,54.2 M291.2,53.5L291.2,53.5l0.2,0.1v0L291.2,53.5 M259.5,54.6l0.2,0.4l-1.2,0.8l-0.7,0.4l-0.2-0.4
				L259.5,54.6 M291.5,56.4c0,0.1-0.1,0.4-0.3,0.4c-0.2,0-0.4-0.2-0.5-0.3c-0.4-0.3-0.9-0.6-1.3-0.8c0-0.1,0.1-0.4,0.3-0.4
				c0.2,0,0.4,0.2,0.5,0.3C290.7,55.8,291.1,56.1,291.5,56.4 M289.3,56.8c0.3,0.4,0.5,0.7,0.7,1.1c0.1,0.1,0.2,0.3,0.1,0.4
				c-0.1,0.1-0.3,0-0.5-0.1c-0.4-0.2-0.8-0.3-1.2-0.5c0.2,0.2,0.4,0.3,0.5,0.4c0.2,0.1,0.5,0.3,0.6,0.5c0.1,0.1-0.1,0.3-0.2,0.3
				c-0.2,0-0.3-0.2-0.5-0.3c-0.4-0.3-0.8-0.6-1.1-0.9c-0.1-0.2,0.2-0.6,0.3-0.6c0.2,0,0.4,0.1,0.6,0.2c0.2,0.1,0.4,0.2,0.7,0.2
				c-0.1-0.2-0.3-0.4-0.4-0.6c-0.1-0.1-0.3-0.3-0.3-0.5c0-0.2,0.3-0.6,0.5-0.4c0.4,0.3,0.8,0.6,1.1,0.9c0.1,0.1,0.4,0.2,0.4,0.4
				c0,0.1-0.1,0.4-0.3,0.3c-0.2,0-0.5-0.4-0.7-0.5C289.7,57.1,289.5,57,289.3,56.8 M260.6,56.3c0.3,0.4,0.8,0.8,0.8,1.3
				c-0.1,0.7-0.8,1.3-1.5,1.1c-0.3-0.1-0.4-0.3-0.6-0.5c-0.1-0.1-0.3-0.3-0.3-0.5C259.5,57.4,260,56.6,260.6,56.3 M259.6,57.9
				c0.2,0.7,1.3,0.4,1.4-0.2c0-0.3-0.2-0.8-0.5-0.5c-0.1,0.1-0.2,0.2-0.3,0.3C259.9,57.6,259.7,57.7,259.6,57.9 M261.9,60.8
				c-0.1-0.1-0.3-0.2-0.4-0.4c0-0.2,0.2-0.4,0-0.6c-0.1-0.1-0.3-0.3-0.4-0.3c-0.2,0-0.3,0.2-0.4,0.2c-0.1,0-0.3-0.1-0.3-0.2
				c0.3-0.4,1-0.6,1.5-0.9c0.2-0.1,0.4-0.3,0.6-0.3c0.1,0,0.4,0.2,0.4,0.3c0.1,0.2-0.1,0.5-0.2,0.6
				C262.4,59.8,262.2,60.3,261.9,60.8 M262.2,58.9l-0.7,0.4v0l0.4,0.3C262,59.5,262.2,59.1,262.2,58.9 M288.1,60.4
				c-0.1,0.1-0.3,0.3-0.4,0.3c-0.1,0-0.2-0.2-0.4-0.2c-0.1,0-0.2,0.1-0.2,0.1c-0.4,0.3-0.3,0.4-0.2,0.8l-0.4,0.2l-0.8-2.2l0.4-0.3
				l0.6,0.3L288.1,60.4 M263.9,61.2L263.9,61.2l0.7-1.1c0.1,0,0.3,0.1,0.3,0.3c0,0.2-0.3,0.4-0.4,0.6c-0.3,0.4-0.6,0.8-0.9,1.2
				l-0.4-0.2l0.2-1.7h0l-0.8,1.2h0l-0.2-0.3l0.3-0.5l0.9-1.3l0.4,0.3l0,0.6L263.9,61.2 M286.3,59.8l0.3,0.7l0.4-0.3v0L286.3,59.8
				 M285.3,59.8c0.1,0.5,0,1,0.1,1.5c0.1,0.2,0.5,0.5,0.4,0.8c0,0.1-0.3,0.2-0.4,0.3c-0.1-0.2-0.3-0.6-0.5-0.7
				c-0.3-0.3-0.9-0.5-1.3-0.7v-0.1c0.1-0.1,0.3-0.2,0.4-0.2c0.3,0,0.6,0.3,0.9,0.4l-0.1-0.9L285.3,59.8 M284.8,62.9l-0.5,0.2
				l-0.4-0.3l-0.7,0.3c0.1,0.4,0.1,0.6-0.3,0.7c-0.1-0.6-0.2-1.1-0.2-1.7c0-0.2-0.1-0.5-0.1-0.6c0.1-0.1,0.4-0.3,0.5-0.2
				c0.2,0.1,0.4,0.4,0.6,0.6C284.1,62.2,284.5,62.5,284.8,62.9 M265.5,62.6l0.5,0.1c0,0.2,0.1,0.4,0.3,0.5c0.1,0,0.4,0,0.4-0.1
				c0-0.2-0.2-0.3-0.3-0.4c-0.3-0.3-0.5-0.7-0.2-1.1c0.4-0.5,1.6-0.1,1.5,0.6c0,0.2-0.3,0.1-0.4,0c-0.1,0-0.5-0.8-0.6-0.3
				c-0.1,0.2,0.2,0.3,0.3,0.4c0.3,0.3,0.5,0.7,0.2,1.1C266.5,64.1,265.4,63.3,265.5,62.6 M283.1,61.8l0.1,0.8l0.4-0.2L283.1,61.8
				 M268.7,62.2c-0.1,0.4-0.3,0.8-0.4,1.2c0,0.1-0.2,0.3-0.1,0.5c0.1,0.3,0.5,0.3,0.6,0.1c0.3-0.4,0.4-1,0.6-1.5l0.4,0.1
				c-0.2,0.5-0.3,1.5-0.7,1.8c-0.4,0.3-1.2,0.1-1.3-0.5c-0.1-0.5,0.3-1.5,0.5-1.9L268.7,62.2 M280.1,62.4c0.3-0.1,0.7-0.3,1.1-0.3
				c1.2-0.1,1.5,1.7,0.5,2.2c-0.1,0.1-0.7,0.3-0.8,0.2c-0.1-0.1-0.2-0.4-0.2-0.5C280.4,63.4,280.2,62.9,280.1,62.4 M280.7,62.6
				l0.5,1.4c0.2-0.1,0.4-0.1,0.6-0.3c0.2-0.3,0-1-0.4-1.1C281.1,62.4,280.9,62.5,280.7,62.6 M271,64.1L271,64.1
				c0.1-0.3,0.3-0.5,0.4-0.8c0.1-0.1,0.1-0.2,0.2-0.3c0.1-0.1,0.6,0,0.6,0.1c0.1,0.1-0.1,0.5-0.1,0.6c-0.1,0.5-0.2,1-0.3,1.5
				l-0.5-0.1l0.3-1.6h0c-0.1,0.4-0.4,0.8-0.6,1.2c-0.1,0.1-0.2,0.3-0.4,0.2c-0.1-0.1-0.1-0.3-0.1-0.4c-0.1-0.4-0.1-0.8-0.1-1.2h0
				l-0.3,1.6l-0.4-0.1c0-0.7,0.3-1.5,0.4-2.2l0.7,0.2l0.1,0.3L271,64.1 M278.5,64.1L279,65c-0.1,0-0.3,0.1-0.5,0
				c-0.2-0.1-0.4-0.6-0.5-0.8l-0.5,0.1l0.2,0.9l-0.4,0l-0.1-0.5l-0.3-1.6c0.4-0.1,1.1-0.3,1.5-0.1C278.8,63.1,278.9,63.8,278.5,64.1
				 M274.2,64.3c0.4,0.2,0.4,0.9,0,1.1c-0.4,0.2-1,0-1.4,0l0.1-2.3c0.4,0.1,0.9-0.1,1.3,0.1C274.6,63.4,274.5,64,274.2,64.3
				 M276.5,63.1c0,0.1,0,0.3,0,0.4c-0.1,0.1-0.8,0.1-0.9,0.1l0,0.5c0.2,0,0.6-0.1,0.8,0c0.1,0.1,0.1,0.3,0,0.3
				c-0.2,0.1-0.5,0-0.7,0.1l0,0.5l1,0v0.4l-1.5,0.1l-0.1-2.2L276.5,63.1 M277.4,63.4c0,0.1,0,0.4,0.1,0.5c0.1,0.1,0.2,0,0.3,0
				c0.1,0,0.3,0,0.4-0.1c0.2-0.2-0.1-0.4-0.3-0.4C277.8,63.3,277.6,63.4,277.4,63.4 M273.3,64.1c0.1,0,0.2,0,0.4,0
				c0.1,0,0.1,0,0.2,0c0.6-0.2-0.4-0.8-0.5-0.4C273.2,63.8,273.3,64,273.3,64.1 M273.2,65c0.2,0,0.4,0,0.6,0
				c0.5-0.2-0.3-0.8-0.6-0.5C273.2,64.6,273.2,64.9,273.2,65z"/>
		</g>
	</g>
	<g>
		<g>
			<path class="st2" d="M55.3,14.1v2.5h-1.5V9.5h2.8c0.5,0,1,0.1,1.4,0.3s0.7,0.5,0.9,0.8c0.2,0.4,0.3,0.8,0.3,1.2
				c0,0.7-0.2,1.2-0.7,1.6c-0.5,0.4-1.1,0.6-2,0.6H55.3L55.3,14.1z M55.3,12.9h1.3c0.4,0,0.7-0.1,0.9-0.3c0.2-0.2,0.3-0.4,0.3-0.8
				c0-0.3-0.1-0.6-0.3-0.8s-0.5-0.3-0.8-0.3h-1.3C55.3,10.7,55.3,12.9,55.3,12.9z"/>
			<path class="st2" d="M65.7,9.5v4.7c0,0.8-0.2,1.4-0.7,1.8c-0.5,0.5-1.2,0.7-2,0.7c-0.8,0-1.5-0.2-2-0.7s-0.7-1-0.7-1.8V9.5h1.5
				v4.7c0,0.5,0.1,0.8,0.3,1c0.2,0.2,0.5,0.3,0.9,0.3c0.8,0,1.2-0.4,1.3-1.3V9.5L65.7,9.5L65.7,9.5z"/>
			<path class="st2" d="M70.6,14.8c0-0.3-0.1-0.5-0.3-0.6s-0.5-0.3-1.1-0.5s-0.9-0.3-1.2-0.5c-0.8-0.4-1.2-1-1.2-1.8
				c0-0.4,0.1-0.7,0.3-1c0.2-0.3,0.5-0.5,0.9-0.7s0.9-0.3,1.4-0.3c0.5,0,1,0.1,1.4,0.3c0.4,0.2,0.7,0.4,0.9,0.8s0.3,0.7,0.3,1.1
				h-1.5c0-0.3-0.1-0.6-0.3-0.8s-0.5-0.3-0.9-0.3c-0.4,0-0.6,0.1-0.8,0.2c-0.2,0.2-0.3,0.4-0.3,0.6c0,0.2,0.1,0.4,0.3,0.6
				c0.2,0.2,0.6,0.3,1,0.4c0.8,0.3,1.4,0.6,1.8,0.9s0.6,0.8,0.6,1.4c0,0.6-0.2,1.1-0.7,1.4c-0.5,0.4-1.1,0.5-1.9,0.5
				c-0.5,0-1-0.1-1.5-0.3s-0.8-0.5-1-0.8c-0.2-0.3-0.4-0.8-0.4-1.2h1.5c0,0.8,0.5,1.2,1.4,1.2c0.3,0,0.6-0.1,0.8-0.2
				S70.6,15,70.6,14.8L70.6,14.8z"/>
			<path class="st2" d="M77.1,15.2h-2.6L74,16.6h-1.6l2.6-7.1h1.4l2.7,7.1h-1.6L77.1,15.2z M74.9,14h1.8l-0.9-2.7
				C75.8,11.3,74.9,14,74.9,14z"/>
			<path class="st2" d="M84.6,10.7h-2.2v5.9h-1.5v-5.9h-2.1V9.5h5.8L84.6,10.7L84.6,10.7z"/>
			<path class="st2" d="M90.2,14.9l1.6-5.3h1.6L91,16.6h-1.5L87,9.5h1.6C88.6,9.5,90.2,14.9,90.2,14.9z"/>
			<path class="st2" d="M99.5,9.5v4.7c0,0.8-0.2,1.4-0.7,1.8c-0.5,0.5-1.2,0.7-2,0.7c-0.8,0-1.5-0.2-2-0.7s-0.7-1-0.7-1.8V9.5h1.5
				v4.7c0,0.5,0.1,0.8,0.3,1c0.2,0.2,0.5,0.3,0.9,0.3c0.8,0,1.2-0.4,1.3-1.3V9.5C98,9.5,99.5,9.5,99.5,9.5z"/>
			<path class="st2" d="M102.2,15.5h3.1v1.2h-4.6V9.5h1.5C102.2,9.5,102.2,15.5,102.2,15.5z"/>
			<path class="st2" d="M108.3,13.8l-0.8,0.8v2h-1.5V9.5h1.5v3.2l0.6-0.9l1.8-2.3h1.8l-2.5,3.2l2.6,4h-1.7L108.3,13.8L108.3,13.8z"
				/>
			<path class="st2" d="M116.5,15.2h-2.6l-0.5,1.5h-1.6l2.6-7.1h1.4l2.7,7.1H117L116.5,15.2z M114.3,14h1.8l-0.9-2.7
				C115.2,11.3,114.3,14,114.3,14z"/>
			<path class="st2" d="M125,16.6h-1.5l-2.9-4.7v4.7h-1.5V9.5h1.5l2.9,4.7V9.5h1.5C125,9.5,125,16.6,125,16.6z"/>
			<path class="st2" d="M132.1,13.2c0,0.7-0.1,1.3-0.4,1.8s-0.6,0.9-1.1,1.2c-0.5,0.3-1,0.4-1.6,0.4c-0.6,0-1.1-0.1-1.6-0.4
				s-0.8-0.7-1.1-1.2S126,14,126,13.3v-0.4c0-0.7,0.1-1.3,0.4-1.8c0.3-0.5,0.6-0.9,1.1-1.2c0.5-0.3,1-0.4,1.6-0.4s1.1,0.1,1.6,0.4
				c0.5,0.3,0.8,0.7,1.1,1.2c0.3,0.5,0.4,1.1,0.4,1.8C132.1,12.9,132.1,13.2,132.1,13.2z M130.6,12.9c0-0.7-0.1-1.3-0.4-1.7
				s-0.6-0.6-1.1-0.6c-0.5,0-0.9,0.2-1.1,0.6s-0.4,0.9-0.4,1.7v0.3c0,0.7,0.1,1.3,0.4,1.7c0.3,0.4,0.7,0.6,1.2,0.6
				c0.5,0,0.9-0.2,1.1-0.6s0.4-0.9,0.4-1.7L130.6,12.9L130.6,12.9z"/>
			<path class="st2" d="M134.6,15.5h3.1v1.2h-4.6V9.5h1.5V15.5z"/>
			<path class="st2" d="M144.1,13.2c0,0.7-0.1,1.3-0.4,1.8s-0.6,0.9-1.1,1.2c-0.5,0.3-1,0.4-1.6,0.4c-0.6,0-1.1-0.1-1.6-0.4
				s-0.8-0.7-1.1-1.2s-0.4-1.1-0.4-1.8v-0.4c0-0.7,0.1-1.3,0.4-1.8c0.3-0.5,0.6-0.9,1.1-1.2c0.5-0.3,1-0.4,1.6-0.4s1.1,0.1,1.6,0.4
				c0.5,0.3,0.8,0.7,1.1,1.2c0.3,0.5,0.4,1.1,0.4,1.8C144.1,12.9,144.1,13.2,144.1,13.2z M142.6,12.9c0-0.7-0.1-1.3-0.4-1.7
				s-0.6-0.6-1.1-0.6c-0.5,0-0.9,0.2-1.1,0.6s-0.4,0.9-0.4,1.7v0.3c0,0.7,0.1,1.3,0.4,1.7s0.7,0.6,1.2,0.6c0.5,0,0.9-0.2,1.1-0.6
				s0.4-0.9,0.4-1.7V12.9L142.6,12.9z"/>
			<path class="st2" d="M150.8,15.7c-0.3,0.3-0.6,0.6-1.1,0.7s-1,0.3-1.6,0.3c-0.6,0-1.2-0.1-1.6-0.4c-0.5-0.3-0.8-0.7-1.1-1.2
				c-0.3-0.5-0.4-1.1-0.4-1.8v-0.5c0-0.7,0.1-1.3,0.4-1.8c0.2-0.5,0.6-0.9,1-1.2c0.5-0.3,1-0.4,1.6-0.4c0.8,0,1.5,0.2,2,0.6
				s0.8,1,0.8,1.8h-1.4c-0.1-0.4-0.2-0.7-0.4-0.9c-0.2-0.2-0.5-0.3-0.9-0.3c-0.5,0-0.9,0.2-1.1,0.6s-0.4,0.9-0.4,1.7v0.5
				c0,0.7,0.1,1.3,0.4,1.7s0.7,0.6,1.2,0.6c0.5,0,0.9-0.1,1.2-0.4V14H148v-1.1h2.8C150.8,12.9,150.8,15.7,150.8,15.7z"/>
			<path class="st2" d="M153.5,16.6h-1.5V9.5h1.5V16.6z"/>
			<path class="st2" d="M157.4,16.6V9.5h2.2c0.6,0,1.2,0.1,1.7,0.4c0.5,0.3,0.9,0.7,1.2,1.2s0.4,1.1,0.4,1.8v0.3
				c0,0.7-0.1,1.2-0.4,1.8c-0.3,0.5-0.7,0.9-1.2,1.2c-0.5,0.3-1.1,0.4-1.7,0.4H157.4z M158.9,10.7v4.7h0.7c0.6,0,1-0.2,1.3-0.6
				s0.5-0.9,0.5-1.6v-0.4c0-0.7-0.1-1.3-0.4-1.6s-0.7-0.6-1.3-0.6L158.9,10.7L158.9,10.7z"/>
			<path class="st2" d="M167.8,15.2h-2.6l-0.5,1.5h-1.6l2.6-7.1h1.4l2.7,7.1h-1.6L167.8,15.2z M165.6,14h1.8l-0.9-2.7L165.6,14z"/>
			<path class="st2" d="M176.3,16.6h-1.5L172,12v4.7h-1.5V9.5h1.5l2.9,4.7V9.5h1.5V16.6z"/>
			<path class="st2" d="M55.8,19.5l1.8,5.2l1.8-5.2h1.9v7.1h-1.5v-1.9l0.1-3.4l-1.9,5.3h-1l-1.9-5.3l0.1,3.3v1.9h-1.5v-7.1
				C53.9,19.5,55.8,19.5,55.8,19.5z"/>
			<path class="st2" d="M64.2,26.6h-1.5v-7.1h1.5V26.6z"/>
			<path class="st2" d="M70.8,20.7h-2.2v5.9h-1.5v-5.9H65v-1.2h5.8L70.8,20.7L70.8,20.7z"/>
			<path class="st2" d="M73.2,26.6h-1.5v-7.1h1.5V26.6z"/>
			<path class="st2" d="M80.1,25.7c-0.3,0.3-0.6,0.6-1.1,0.7c-0.5,0.2-1,0.3-1.6,0.3c-0.6,0-1.2-0.1-1.6-0.4
				c-0.5-0.3-0.8-0.7-1.1-1.2c-0.3-0.5-0.4-1.1-0.4-1.8v-0.5c0-0.7,0.1-1.3,0.4-1.8s0.6-0.9,1-1.2c0.5-0.3,1-0.4,1.6-0.4
				c0.8,0,1.5,0.2,2,0.6c0.5,0.4,0.8,1,0.8,1.8h-1.4c-0.1-0.4-0.2-0.7-0.4-0.9c-0.2-0.2-0.5-0.3-0.9-0.3c-0.5,0-0.9,0.2-1.1,0.6
				c-0.3,0.4-0.4,0.9-0.4,1.7v0.5c0,0.7,0.1,1.3,0.4,1.7s0.7,0.6,1.2,0.6c0.6,0,0.9-0.1,1.2-0.4V24h-1.3v-1.1h2.8
				C80.1,22.9,80.1,25.7,80.1,25.7z"/>
			<path class="st2" d="M85.3,25.2h-2.6l-0.5,1.5h-1.6l2.6-7.1h1.4l2.7,7.1h-1.6C85.8,26.6,85.3,25.2,85.3,25.2z M83.2,24h1.8
				l-0.9-2.7C84.1,21.3,83.2,24,83.2,24z"/>
			<path class="st2" d="M91.7,24.8c0-0.3-0.1-0.5-0.3-0.6c-0.2-0.1-0.5-0.3-1.1-0.5c-0.5-0.2-0.9-0.3-1.2-0.5
				c-0.8-0.4-1.2-1-1.2-1.8c0-0.4,0.1-0.7,0.3-1c0.2-0.3,0.5-0.5,0.9-0.7c0.4-0.2,0.9-0.3,1.4-0.3c0.5,0,1,0.1,1.4,0.3
				s0.7,0.4,0.9,0.8c0.2,0.3,0.3,0.7,0.3,1.1h-1.5c0-0.3-0.1-0.6-0.3-0.8s-0.5-0.3-0.9-0.3c-0.4,0-0.6,0.1-0.8,0.2s-0.3,0.4-0.3,0.6
				c0,0.2,0.1,0.4,0.3,0.6c0.2,0.2,0.6,0.3,1,0.4c0.8,0.3,1.4,0.6,1.8,0.9s0.6,0.8,0.6,1.4c0,0.6-0.2,1.1-0.7,1.4
				c-0.5,0.4-1.1,0.5-1.9,0.5c-0.5,0-1-0.1-1.5-0.3c-0.4-0.2-0.8-0.5-1-0.8c-0.2-0.3-0.4-0.8-0.4-1.2h1.5c0,0.8,0.5,1.2,1.4,1.2
				c0.3,0,0.6-0.1,0.8-0.2C91.6,25.2,91.7,25,91.7,24.8L91.7,24.8z"/>
			<path class="st2" d="M95.8,26.6h-1.5v-7.1h1.5V26.6z"/>
			<path class="st2" d="M99.6,26.6v-7.1h2.5c0.9,0,1.5,0.2,2,0.5s0.7,0.8,0.7,1.5c0,0.3-0.1,0.7-0.3,0.9c-0.2,0.3-0.4,0.5-0.7,0.6
				c0.4,0.1,0.7,0.3,0.9,0.6c0.2,0.3,0.3,0.6,0.3,1c0,0.7-0.2,1.2-0.7,1.6s-1.1,0.5-1.9,0.5C102.4,26.6,99.6,26.6,99.6,26.6z
				 M101.1,22.5h1.1c0.7,0,1.1-0.3,1.1-0.9c0-0.3-0.1-0.6-0.3-0.7c-0.2-0.1-0.5-0.2-0.9-0.2h-1C101.1,20.7,101.1,22.5,101.1,22.5z
				 M101.1,23.5v1.9h1.3c0.3,0,0.6-0.1,0.8-0.2c0.2-0.2,0.3-0.4,0.3-0.7c0-0.7-0.3-1-1-1C102.4,23.5,101.1,23.5,101.1,23.5z"/>
			<path class="st2" d="M110.3,23.6h-2.8v1.9h3.3v1.2H106v-7.1h4.8v1.2h-3.3v1.7h2.8V23.6z"/>
			<path class="st2" d="M117.4,26.6h-1.5l-2.9-4.7v4.7h-1.5v-7.1h1.5l2.9,4.7v-4.7h1.5C117.4,19.5,117.4,26.6,117.4,26.6z"/>
			<path class="st2" d="M124.3,24.3c-0.1,0.8-0.3,1.4-0.8,1.8c-0.5,0.4-1.2,0.7-2,0.7c-0.9,0-1.6-0.3-2.2-0.9
				c-0.5-0.6-0.8-1.5-0.8-2.5v-0.4c0-0.7,0.1-1.3,0.4-1.8s0.6-0.9,1-1.2c0.4-0.3,1-0.4,1.6-0.4c0.8,0,1.5,0.2,2,0.7s0.8,1.1,0.9,1.9
				h-1.5c0-0.5-0.2-0.8-0.4-1c-0.2-0.2-0.6-0.3-1-0.3c-0.5,0-0.9,0.2-1.1,0.5c-0.2,0.4-0.4,0.9-0.4,1.6v0.5c0,0.8,0.1,1.3,0.3,1.7
				c0.2,0.4,0.6,0.5,1.1,0.5c0.5,0,0.8-0.1,1-0.3c0.2-0.2,0.4-0.5,0.4-1L124.3,24.3L124.3,24.3z"/>
			<path class="st2" d="M129.2,25.2h-2.6l-0.5,1.5h-1.6l2.6-7.1h1.4l2.7,7.1h-1.6L129.2,25.2L129.2,25.2z M127.1,24h1.8l-0.9-2.7
				C127.9,21.3,127.1,24,127.1,24z"/>
			<path class="st2" d="M137.7,26.6h-1.5l-2.9-4.7v4.7h-1.5v-7.1h1.5l2.9,4.7v-4.7h1.5V26.6z"/>
			<path class="st2" d="M143.1,25.2h-2.6l-0.5,1.5h-1.6l2.6-7.1h1.4l2.7,7.1h-1.6C143.6,26.6,143.1,25.2,143.1,25.2z M140.9,24h1.8
				l-0.9-2.7C141.8,21.3,140.9,24,140.9,24z"/>
			<path class="st2" d="M153.9,25.7c-0.3,0.3-0.6,0.6-1.1,0.7c-0.5,0.2-1,0.3-1.6,0.3c-0.6,0-1.2-0.1-1.6-0.4
				c-0.5-0.3-0.8-0.7-1.1-1.2c-0.3-0.5-0.4-1.1-0.4-1.8v-0.5c0-0.7,0.1-1.3,0.4-1.8c0.2-0.5,0.6-0.9,1-1.2c0.5-0.3,1-0.4,1.6-0.4
				c0.8,0,1.5,0.2,2,0.6s0.8,1,0.8,1.8h-1.4c-0.1-0.4-0.2-0.7-0.4-0.9c-0.2-0.2-0.5-0.3-0.9-0.3c-0.5,0-0.9,0.2-1.1,0.6
				s-0.4,0.9-0.4,1.7v0.5c0,0.7,0.1,1.3,0.4,1.7s0.7,0.6,1.2,0.6c0.5,0,0.9-0.1,1.2-0.4V24h-1.3v-1.1h2.8
				C153.9,22.9,153.9,25.7,153.9,25.7z"/>
			<path class="st2" d="M159.4,23.6h-2.8v1.9h3.3v1.2h-4.8v-7.1h4.8v1.2h-3.3v1.7h2.8V23.6z"/>
			<path class="st2" d="M166.6,23.2c0,0.7-0.1,1.3-0.4,1.8s-0.6,0.9-1.1,1.2c-0.5,0.3-1,0.4-1.6,0.4c-0.6,0-1.1-0.1-1.6-0.4
				s-0.8-0.7-1.1-1.2c-0.3-0.5-0.4-1.1-0.4-1.8v-0.4c0-0.7,0.1-1.3,0.4-1.8c0.3-0.5,0.6-0.9,1.1-1.2c0.5-0.3,1-0.4,1.6-0.4
				s1.1,0.1,1.6,0.4c0.5,0.3,0.8,0.7,1.1,1.2c0.3,0.5,0.4,1.1,0.4,1.8C166.6,22.9,166.6,23.2,166.6,23.2z M165.1,22.9
				c0-0.7-0.1-1.3-0.4-1.7s-0.6-0.6-1.1-0.6c-0.5,0-0.9,0.2-1.1,0.6s-0.4,0.9-0.4,1.7v0.3c0,0.7,0.1,1.3,0.4,1.7s0.7,0.6,1.2,0.6
				c0.5,0,0.9-0.2,1.1-0.6c0.3-0.4,0.4-0.9,0.4-1.7C165.1,23.3,165.1,22.9,165.1,22.9z"/>
			<path class="st2" d="M169.1,25.5h3.1v1.2h-4.6v-7.1h1.5C169.1,19.5,169.1,25.5,169.1,25.5z"/>
			<path class="st2" d="M178.6,23.2c0,0.7-0.1,1.3-0.4,1.8s-0.6,0.9-1.1,1.2c-0.5,0.3-1,0.4-1.6,0.4c-0.6,0-1.1-0.1-1.6-0.4
				s-0.8-0.7-1.1-1.2c-0.3-0.5-0.4-1.1-0.4-1.8v-0.4c0-0.7,0.1-1.3,0.4-1.8c0.3-0.5,0.6-0.9,1.1-1.2c0.5-0.3,1-0.4,1.6-0.4
				s1.1,0.1,1.6,0.4c0.5,0.3,0.8,0.7,1.1,1.2c0.3,0.5,0.4,1.1,0.4,1.8C178.6,22.9,178.6,23.2,178.6,23.2z M177.1,22.9
				c0-0.7-0.1-1.3-0.4-1.7s-0.6-0.6-1.1-0.6c-0.5,0-0.9,0.2-1.1,0.6s-0.4,0.9-0.4,1.7v0.3c0,0.7,0.1,1.3,0.4,1.7s0.7,0.6,1.2,0.6
				c0.5,0,0.9-0.2,1.1-0.6c0.3-0.4,0.4-0.9,0.4-1.7C177.1,23.3,177.1,22.9,177.1,22.9z"/>
			<path class="st2" d="M185.3,25.7c-0.3,0.3-0.6,0.6-1.1,0.7c-0.5,0.2-1,0.3-1.6,0.3c-0.6,0-1.2-0.1-1.6-0.4
				c-0.5-0.3-0.8-0.7-1.1-1.2c-0.3-0.5-0.4-1.1-0.4-1.8v-0.5c0-0.7,0.1-1.3,0.4-1.8c0.2-0.5,0.6-0.9,1-1.2c0.5-0.3,1-0.4,1.6-0.4
				c0.8,0,1.5,0.2,2,0.6s0.8,1,0.8,1.8h-1.4c-0.1-0.4-0.2-0.7-0.4-0.9c-0.2-0.2-0.5-0.3-0.9-0.3c-0.5,0-0.9,0.2-1.1,0.6
				s-0.4,0.9-0.4,1.7v0.5c0,0.7,0.1,1.3,0.4,1.7s0.7,0.6,1.2,0.6c0.5,0,0.9-0.1,1.2-0.4V24h-1.3v-1.1h2.8
				C185.3,22.9,185.3,25.7,185.3,25.7z"/>
			<path class="st2" d="M188,26.6h-1.5v-7.1h1.5V26.6z"/>
		</g>
		<g>
			<path class="st2" d="M53.8,39.5v-5.7h1.9c0.6,0,1.1,0.1,1.5,0.4s0.5,0.6,0.5,1.2c0,0.3-0.1,0.5-0.2,0.7c-0.1,0.2-0.3,0.4-0.6,0.5
				c0.3,0.1,0.5,0.2,0.7,0.5s0.3,0.5,0.3,0.8c0,0.5-0.2,0.9-0.5,1.2c-0.3,0.3-0.8,0.4-1.5,0.4C55.9,39.5,53.8,39.5,53.8,39.5z
				 M54.8,36.2h1c0.3,0,0.5-0.1,0.7-0.2c0.2-0.1,0.3-0.3,0.3-0.6c0-0.3-0.1-0.5-0.2-0.6s-0.4-0.2-0.7-0.2h-1
				C54.8,34.6,54.8,36.2,54.8,36.2z M54.8,36.9v1.8h1.1c0.3,0,0.6-0.1,0.7-0.2c0.2-0.2,0.3-0.4,0.3-0.6c0-0.6-0.3-0.9-0.9-0.9
				C56,36.9,54.8,36.9,54.8,36.9z"/>
			<path class="st2" d="M62.1,38.2h-2.2l-0.5,1.3h-1l2.1-5.7h0.9l2.2,5.7h-1C62.5,39.5,62.1,38.2,62.1,38.2z M60.1,37.4h1.6L61,35
				C61,35,60.1,37.4,60.1,37.4z"/>
			<path class="st2" d="M64.2,39.5v-5.7h1.7c0.5,0,0.9,0.1,1.3,0.3c0.4,0.2,0.7,0.5,0.9,1c0.2,0.4,0.3,0.9,0.3,1.4v0.3
				c0,0.5-0.1,1-0.3,1.4c-0.2,0.4-0.5,0.7-0.9,0.9c-0.4,0.2-0.9,0.3-1.4,0.3H64.2z M65.2,34.6v4.1h0.6c0.5,0,0.9-0.2,1.2-0.5
				s0.4-0.8,0.4-1.4v-0.3c0-0.6-0.1-1.1-0.4-1.4c-0.3-0.3-0.7-0.5-1.2-0.5H65.2z"/>
			<path class="st2" d="M72.5,38.2h-2.2l-0.5,1.3h-1l2.1-5.7h0.9l2.2,5.7h-1C73,39.5,72.5,38.2,72.5,38.2z M70.6,37.4h1.6L71.4,35
				L70.6,37.4z"/>
			<path class="st2" d="M79.2,39.5h-1l-2.5-4v4h-1v-5.7h1l2.5,4.1v-4.1h1V39.5z"/>
			<path class="st2" d="M86.7,38.8c-0.2,0.3-0.5,0.5-0.9,0.6c-0.4,0.1-0.8,0.2-1.2,0.2c-0.5,0-0.9-0.1-1.3-0.3
				c-0.4-0.2-0.7-0.5-0.8-0.9s-0.3-0.9-0.3-1.4v-0.4c0-0.9,0.2-1.5,0.6-2c0.4-0.5,1-0.7,1.7-0.7c0.6,0,1.1,0.2,1.5,0.5
				c0.4,0.3,0.6,0.8,0.7,1.4h-1c-0.1-0.7-0.5-1-1.2-1c-0.4,0-0.8,0.2-1,0.5c-0.2,0.3-0.3,0.8-0.4,1.4v0.4c0,0.6,0.1,1.1,0.4,1.4
				c0.3,0.3,0.6,0.5,1.1,0.5c0.5,0,0.9-0.1,1.1-0.3v-1.1h-1.2v-0.8h2.2L86.7,38.8L86.7,38.8z"/>
			<path class="st2" d="M91.1,37h-2.3v1.8h2.7v0.8h-3.7v-5.7h3.7v0.8h-2.7v1.6h2.3L91.1,37L91.1,37z"/>
			<path class="st2" d="M96.8,36.8c0,0.6-0.1,1-0.3,1.5c-0.2,0.4-0.5,0.7-0.8,1c-0.4,0.2-0.8,0.3-1.2,0.3c-0.5,0-0.9-0.1-1.2-0.3
				c-0.4-0.2-0.6-0.5-0.8-1c-0.2-0.4-0.3-0.9-0.3-1.4v-0.3c0-0.6,0.1-1,0.3-1.5c0.2-0.4,0.5-0.7,0.8-1c0.4-0.2,0.8-0.3,1.2-0.3
				s0.9,0.1,1.2,0.3s0.6,0.5,0.8,1s0.3,0.9,0.3,1.5C96.8,36.5,96.8,36.8,96.8,36.8z M95.9,36.5c0-0.6-0.1-1.1-0.4-1.4
				s-0.6-0.5-1-0.5c-0.4,0-0.8,0.2-1,0.5c-0.2,0.3-0.4,0.8-0.4,1.4v0.3c0,0.6,0.1,1.1,0.4,1.4c0.2,0.3,0.6,0.5,1,0.5
				c0.4,0,0.8-0.2,1-0.5c0.2-0.3,0.4-0.8,0.4-1.5L95.9,36.5L95.9,36.5z"/>
			<path class="st2" d="M98.8,38.7h2.6v0.8h-3.6v-5.7h1V38.7z"/>
			<path class="st2" d="M106.4,36.8c0,0.6-0.1,1-0.3,1.5c-0.2,0.4-0.5,0.7-0.8,1c-0.4,0.2-0.8,0.3-1.2,0.3c-0.5,0-0.9-0.1-1.2-0.3
				c-0.4-0.2-0.6-0.5-0.8-1c-0.2-0.4-0.3-0.9-0.3-1.4v-0.3c0-0.6,0.1-1,0.3-1.5c0.2-0.4,0.5-0.7,0.8-1c0.4-0.2,0.8-0.3,1.2-0.3
				s0.9,0.1,1.2,0.3s0.6,0.5,0.8,1s0.3,0.9,0.3,1.5C106.4,36.5,106.4,36.8,106.4,36.8z M105.5,36.5c0-0.6-0.1-1.1-0.4-1.4
				s-0.6-0.5-1-0.5c-0.4,0-0.8,0.2-1,0.5c-0.2,0.3-0.4,0.8-0.4,1.4v0.3c0,0.6,0.1,1.1,0.4,1.4c0.2,0.3,0.6,0.5,1,0.5
				c0.4,0,0.8-0.2,1-0.5c0.2-0.3,0.4-0.8,0.4-1.5L105.5,36.5L105.5,36.5z"/>
			<path class="st2" d="M111.8,38.8c-0.2,0.3-0.5,0.5-0.9,0.6c-0.4,0.1-0.8,0.2-1.2,0.2c-0.5,0-0.9-0.1-1.3-0.3
				c-0.4-0.2-0.7-0.5-0.8-0.9s-0.3-0.9-0.3-1.4v-0.4c0-0.9,0.2-1.5,0.6-2c0.4-0.5,1-0.7,1.7-0.7c0.6,0,1.1,0.2,1.5,0.5
				c0.4,0.3,0.6,0.8,0.7,1.4h-1c-0.1-0.7-0.5-1-1.2-1c-0.4,0-0.8,0.2-1,0.5c-0.2,0.3-0.3,0.8-0.4,1.4v0.4c0,0.6,0.1,1.1,0.4,1.4
				c0.3,0.3,0.6,0.5,1.1,0.5c0.5,0,0.9-0.1,1.1-0.3v-1.1h-1.2v-0.8h2.2L111.8,38.8L111.8,38.8z"/>
			<path class="st2" d="M113.9,39.5h-1v-5.7h1V39.5z"/>
		</g>
		<g>
			<path class="st2" d="M54.7,44.2l-0.6,0.6v1.5h-0.4v-4.3h0.4v2.3l2.2-2.3h0.5L55,44l1.9,2.4h-0.4L54.7,44.2L54.7,44.2z"/>
			<path class="st2" d="M59.9,44.3h-2V46h2.3v0.3h-2.7v-4.3h2.6v0.3h-2.3V44h2L59.9,44.3L59.9,44.3z"/>
			<path class="st2" d="M61.5,42.1l1.6,3.8l1.6-3.8h0.5v4.3h-0.4v-1.9l0-1.9l-1.6,3.8h-0.3l-1.6-3.7l0,1.9v1.9H61v-4.3H61.5z"/>
			<path class="st2" d="M68.5,44.3h-2V46h2.3v0.3h-2.7v-4.3h2.6v0.3h-2.3V44h2L68.5,44.3L68.5,44.3z"/>
			<path class="st2" d="M72.8,46.3h-0.4L70,42.7v3.7h-0.4v-4.3H70l2.5,3.7v-3.7h0.4V46.3z"/>
			<path class="st2" d="M76.7,42.4h-1.5v4h-0.4v-4h-1.5v-0.3h3.3L76.7,42.4L76.7,42.4z"/>
			<path class="st2" d="M79.7,44.3h-2V46H80v0.3h-2.7v-4.3H80v0.3h-2.3V44h2L79.7,44.3L79.7,44.3z"/>
			<path class="st2" d="M82.4,44.6h-1.2v1.8h-0.4v-4.3h1.4c0.5,0,0.8,0.1,1.1,0.3s0.4,0.5,0.4,0.9c0,0.3-0.1,0.5-0.2,0.7
				s-0.4,0.4-0.6,0.4l1.1,1.8v0h-0.4L82.4,44.6L82.4,44.6z M81.1,44.3h1.1c0.3,0,0.5-0.1,0.7-0.3s0.3-0.4,0.3-0.7
				c0-0.3-0.1-0.5-0.3-0.7c-0.2-0.2-0.5-0.2-0.8-0.2h-1C81.1,42.4,81.1,44.3,81.1,44.3z"/>
			<path class="st2" d="M85,46.3h-0.4v-4.3H85V46.3z"/>
			<path class="st2" d="M88.5,45.1h-1.9l-0.4,1.2h-0.4l1.6-4.3h0.3l1.6,4.3H89L88.5,45.1z M86.7,44.8h1.7l-0.9-2.3L86.7,44.8z"/>
			<path class="st2" d="M93.1,46.3h-0.4l-2.5-3.7v3.7H90v-4.3h0.4l2.5,3.7v-3.7h0.4V46.3z"/>
			<path class="st2" d="M98,44.3h-2V46h2.3v0.3h-2.7v-4.3h2.6v0.3H96V44h2L98,44.3L98,44.3z"/>
			<path class="st2" d="M102.3,46.3h-0.4l-2.5-3.7v3.7h-0.4v-4.3h0.4l2.5,3.7v-3.7h0.4V46.3z"/>
			<path class="st2" d="M105.7,44.3h-2V46h2.3v0.3h-2.7v-4.3h2.6v0.3h-2.3V44h2L105.7,44.3L105.7,44.3z"/>
			<path class="st2" d="M108.4,44.6h-1.2v1.8h-0.4v-4.3h1.4c0.5,0,0.8,0.1,1.1,0.3s0.4,0.5,0.4,0.9c0,0.3-0.1,0.5-0.2,0.7
				s-0.4,0.4-0.6,0.4l1.1,1.8v0h-0.4L108.4,44.6L108.4,44.6z M107.1,44.3h1.1c0.3,0,0.5-0.1,0.7-0.3s0.3-0.4,0.3-0.7
				c0-0.3-0.1-0.5-0.3-0.7c-0.2-0.2-0.5-0.2-0.8-0.2h-1C107.1,42.4,107.1,44.3,107.1,44.3z"/>
			<path class="st2" d="M113.7,45.8c-0.1,0.2-0.3,0.3-0.6,0.4c-0.3,0.1-0.6,0.1-0.9,0.1c-0.3,0-0.6-0.1-0.9-0.2s-0.5-0.4-0.6-0.7
				s-0.2-0.6-0.2-1v-0.5c0-0.6,0.1-1.1,0.4-1.4s0.7-0.5,1.2-0.5c0.4,0,0.8,0.1,1.1,0.3s0.4,0.5,0.5,0.9h-0.4
				c-0.1-0.3-0.2-0.6-0.4-0.7c-0.2-0.2-0.5-0.2-0.8-0.2c-0.4,0-0.7,0.1-0.9,0.4c-0.2,0.3-0.3,0.7-0.3,1.2v0.5c0,0.3,0.1,0.6,0.2,0.9
				c0.1,0.2,0.3,0.4,0.5,0.6c0.2,0.1,0.4,0.2,0.7,0.2c0.3,0,0.6,0,0.8-0.1c0.1-0.1,0.3-0.1,0.3-0.2v-1.1h-1.1v-0.3h1.5
				C113.7,44.3,113.7,45.8,113.7,45.8z"/>
			<path class="st2" d="M115.1,46.3h-0.4v-4.3h0.4V46.3z"/>
			<path class="st2" d="M117.7,46.3v-4.3h1.2c0.3,0,0.7,0.1,0.9,0.2s0.5,0.4,0.6,0.7c0.2,0.3,0.2,0.6,0.2,1v0.4c0,0.4-0.1,0.7-0.2,1
				s-0.4,0.5-0.7,0.7s-0.6,0.2-1,0.2L117.7,46.3L117.7,46.3z M118.1,42.4V46h0.8c0.4,0,0.8-0.1,1.1-0.4c0.3-0.3,0.4-0.7,0.4-1.2V44
				c0-0.5-0.1-0.9-0.4-1.2c-0.3-0.3-0.6-0.4-1.1-0.4C118.9,42.4,118.1,42.4,118.1,42.4z"/>
			<path class="st2" d="M123.9,45.1H122l-0.4,1.2h-0.4l1.6-4.3h0.3l1.6,4.3h-0.4L123.9,45.1z M122.1,44.8h1.7l-0.9-2.3L122.1,44.8z"
				/>
			<path class="st2" d="M128.5,46.3h-0.4l-2.5-3.7v3.7h-0.4v-4.3h0.4l2.5,3.7v-3.7h0.4V46.3z"/>
			<path class="st2" d="M133.5,45.3c0-0.2-0.1-0.4-0.2-0.6s-0.5-0.3-0.9-0.4s-0.8-0.3-1-0.4c-0.3-0.2-0.4-0.5-0.4-0.8
				c0-0.3,0.1-0.6,0.4-0.8s0.6-0.3,1-0.3c0.3,0,0.5,0.1,0.8,0.2c0.2,0.1,0.4,0.3,0.5,0.5s0.2,0.4,0.2,0.7h-0.4
				c0-0.3-0.1-0.5-0.3-0.7c-0.2-0.2-0.5-0.3-0.8-0.3c-0.3,0-0.6,0.1-0.8,0.2s-0.3,0.3-0.3,0.6c0,0.2,0.1,0.4,0.3,0.5
				c0.2,0.1,0.5,0.3,0.8,0.4c0.4,0.1,0.7,0.2,0.9,0.3s0.3,0.2,0.4,0.4s0.1,0.3,0.1,0.6c0,0.3-0.1,0.6-0.4,0.8
				c-0.3,0.2-0.6,0.3-1.1,0.3c-0.3,0-0.6-0.1-0.8-0.2s-0.4-0.3-0.6-0.5c-0.1-0.2-0.2-0.4-0.2-0.7h0.4c0,0.3,0.1,0.5,0.3,0.7
				s0.5,0.3,0.9,0.3c0.3,0,0.6-0.1,0.8-0.2S133.5,45.5,133.5,45.3L133.5,45.3z"/>
			<path class="st2" d="M137.6,42.1V45c0,0.3-0.1,0.5-0.2,0.8s-0.3,0.4-0.5,0.5s-0.5,0.2-0.8,0.2c-0.4,0-0.8-0.1-1.1-0.4
				s-0.4-0.6-0.4-1v-2.9h0.4V45c0,0.4,0.1,0.6,0.3,0.8s0.5,0.3,0.8,0.3s0.6-0.1,0.8-0.3c0.2-0.2,0.3-0.5,0.3-0.8v-2.9
				C137.2,42.1,137.6,42.1,137.6,42.1z"/>
			<path class="st2" d="M139,42.1l1.6,3.8l1.6-3.8h0.5v4.3h-0.4v-1.9l0-1.9l-1.6,3.8h-0.3l-1.6-3.7l0,1.9v1.9h-0.4v-4.3H139z"/>
			<path class="st2" d="M143.8,46.3v-4.3h1.3c0.5,0,0.8,0.1,1,0.3s0.4,0.5,0.4,0.8c0,0.2-0.1,0.4-0.2,0.6c-0.1,0.2-0.3,0.3-0.5,0.4
				c0.2,0.1,0.4,0.2,0.6,0.4c0.2,0.2,0.2,0.4,0.2,0.7c0,0.4-0.1,0.7-0.4,0.9c-0.2,0.2-0.6,0.3-1,0.3L143.8,46.3L143.8,46.3z
				 M144.1,44h1c0.3,0,0.5-0.1,0.7-0.2c0.2-0.1,0.2-0.3,0.2-0.6c0-0.3-0.1-0.5-0.3-0.6c-0.2-0.1-0.4-0.2-0.8-0.2h-0.9V44z
				 M144.1,44.3V46h1.1c0.3,0,0.6-0.1,0.7-0.2c0.2-0.2,0.3-0.4,0.3-0.7c0-0.3-0.1-0.5-0.3-0.6c-0.2-0.2-0.4-0.2-0.7-0.2H144.1z"/>
			<path class="st2" d="M149.8,44.3h-2V46h2.3v0.3h-2.7v-4.3h2.6v0.3h-2.3V44h2V44.3L149.8,44.3z"/>
			<path class="st2" d="M152.4,44.6h-1.2v1.8h-0.4v-4.3h1.4c0.5,0,0.8,0.1,1.1,0.3s0.4,0.5,0.4,0.9c0,0.3-0.1,0.5-0.2,0.7
				s-0.4,0.4-0.6,0.4l1.1,1.8v0h-0.4L152.4,44.6L152.4,44.6z M151.2,44.3h1.1c0.3,0,0.5-0.1,0.7-0.3s0.3-0.4,0.3-0.7
				c0-0.3-0.1-0.5-0.3-0.7c-0.2-0.2-0.5-0.2-0.8-0.2h-1V44.3z"/>
			<path class="st2" d="M156.1,46.3v-4.3h1.2c0.3,0,0.7,0.1,0.9,0.2s0.5,0.4,0.6,0.7c0.2,0.3,0.2,0.6,0.2,1v0.4c0,0.4-0.1,0.7-0.2,1
				s-0.4,0.5-0.7,0.7s-0.6,0.2-1,0.2C157.3,46.3,156.1,46.3,156.1,46.3z M156.5,42.4V46h0.8c0.4,0,0.8-0.1,1.1-0.4
				c0.3-0.3,0.4-0.7,0.4-1.2V44c0-0.5-0.1-0.9-0.4-1.2c-0.3-0.3-0.6-0.4-1.1-0.4H156.5z"/>
			<path class="st2" d="M162.3,45.1h-1.9l-0.4,1.2h-0.4l1.6-4.3h0.3l1.6,4.3h-0.4L162.3,45.1z M160.5,44.8h1.7l-0.9-2.3L160.5,44.8z
				"/>
			<path class="st2" d="M164.7,44.4l1.3-2.3h0.4l-1.5,2.7v1.6h-0.4v-1.6l-1.5-2.7h0.4C163.4,42.1,164.7,44.4,164.7,44.4z"/>
			<path class="st2" d="M169.1,45.1h-1.9l-0.4,1.2h-0.4l1.6-4.3h0.3l1.6,4.3h-0.4L169.1,45.1z M167.2,44.8h1.7l-0.9-2.3L167.2,44.8z
				"/>
			<path class="st2" d="M172.5,42.1l1.6,3.8l1.6-3.8h0.5v4.3h-0.4v-1.9l0-1.9l-1.6,3.8h-0.3l-1.6-3.7l0,1.9v1.9H172v-4.3H172.5z"/>
			<path class="st2" d="M177.6,46.3h-0.4v-4.3h0.4V46.3z"/>
			<path class="st2" d="M181.9,46.3h-0.4l-2.5-3.7v3.7h-0.4v-4.3h0.4l2.5,3.7v-3.7h0.4V46.3z"/>
			<path class="st2" d="M185.4,44.3h-2V46h2.3v0.3H183v-4.3h2.6v0.3h-2.3V44h2V44.3L185.4,44.3z"/>
			<path class="st2" d="M188,44.6h-1.2v1.8h-0.4v-4.3h1.4c0.5,0,0.8,0.1,1.1,0.3s0.4,0.5,0.4,0.9c0,0.3-0.1,0.5-0.2,0.7
				s-0.4,0.4-0.6,0.4l1.1,1.8v0h-0.4L188,44.6L188,44.6z M186.8,44.3h1.1c0.3,0,0.5-0.1,0.7-0.3s0.3-0.4,0.3-0.7
				c0-0.3-0.1-0.5-0.3-0.7c-0.2-0.2-0.5-0.2-0.8-0.2h-1V44.3z"/>
			<path class="st2" d="M192.5,45.1h-1.9l-0.4,1.2h-0.4l1.6-4.3h0.3l1.6,4.3H193L192.5,45.1z M190.7,44.8h1.7l-0.9-2.3L190.7,44.8z"
				/>
			<path class="st2" d="M194.4,46h2.1v0.3H194v-4.3h0.4V46L194.4,46z"/>
		</g>
		<line class="st3" x1="53.8" y1="30.6" x2="196.5" y2="30.6"/>
	</g>
</g>
</svg>
